<?xml version="1.0" encoding="utf-8"?>
<!-- Generator: Adobe Illustrator 23.0.3, SVG Export Plug-In . SVG Version: 6.00 Build 0)  -->
<svg version="1.1" id="Capa_1" xmlns="http://www.w3.org/2000/svg" xmlns:xlink="http://www.w3.org/1999/xlink" x="0px" y="0px"
	 viewBox="0 0 841.89 595.28" style="enable-background:new 0 0 841.89 595.28;" xml:space="preserve">
<style type="text/css">
	.st0{fill-rule:evenodd;clip-rule:evenodd;fill:#3D7790;}
	.st1{fill-rule:evenodd;clip-rule:evenodd;fill:#3F7891;}
	.st2{fill-rule:evenodd;clip-rule:evenodd;fill:url(#SVGID_1_);}
	.st3{fill-rule:evenodd;clip-rule:evenodd;fill:url(#SVGID_2_);}
	.st4{fill-rule:evenodd;clip-rule:evenodd;fill:url(#SVGID_3_);}
	.st5{fill-rule:evenodd;clip-rule:evenodd;fill:url(#SVGID_4_);}
	.st6{fill-rule:evenodd;clip-rule:evenodd;fill:url(#SVGID_5_);}
	.st7{fill-rule:evenodd;clip-rule:evenodd;fill:url(#SVGID_6_);}
	.st8{fill-rule:evenodd;clip-rule:evenodd;fill:url(#SVGID_7_);}
	.st9{fill-rule:evenodd;clip-rule:evenodd;fill:url(#SVGID_8_);}
	.st10{fill-rule:evenodd;clip-rule:evenodd;fill:url(#SVGID_9_);}
	.st11{fill-rule:evenodd;clip-rule:evenodd;fill:url(#SVGID_10_);}
	.st12{fill-rule:evenodd;clip-rule:evenodd;fill:url(#SVGID_11_);}
	.st13{fill-rule:evenodd;clip-rule:evenodd;fill:url(#SVGID_12_);}
	.st14{fill-rule:evenodd;clip-rule:evenodd;fill:url(#SVGID_13_);}
	.st15{clip-path:url(#SVGID_15_);fill-rule:evenodd;clip-rule:evenodd;fill:#722C81;}
	.st16{clip-path:url(#SVGID_15_);fill-rule:evenodd;clip-rule:evenodd;fill:url(#SVGID_16_);}
	.st17{clip-path:url(#SVGID_15_);fill-rule:evenodd;clip-rule:evenodd;fill:#874B98;}
	.st18{fill-rule:evenodd;clip-rule:evenodd;fill:url(#SVGID_17_);}
	.st19{fill-rule:evenodd;clip-rule:evenodd;fill:url(#SVGID_18_);}
	.st20{fill-rule:evenodd;clip-rule:evenodd;fill:url(#SVGID_19_);}
	.st21{fill-rule:evenodd;clip-rule:evenodd;fill:url(#SVGID_20_);}
	.st22{fill-rule:evenodd;clip-rule:evenodd;fill:url(#SVGID_21_);}
	.st23{fill-rule:evenodd;clip-rule:evenodd;fill:url(#SVGID_22_);}
	.st24{fill-rule:evenodd;clip-rule:evenodd;fill:url(#SVGID_23_);}
	.st25{fill-rule:evenodd;clip-rule:evenodd;fill:url(#SVGID_24_);}
	.st26{fill-rule:evenodd;clip-rule:evenodd;fill:url(#SVGID_25_);}
	.st27{fill-rule:evenodd;clip-rule:evenodd;fill:url(#SVGID_26_);}
	.st28{fill-rule:evenodd;clip-rule:evenodd;fill:url(#SVGID_27_);}
	.st29{fill-rule:evenodd;clip-rule:evenodd;fill:url(#SVGID_28_);}
	.st30{fill-rule:evenodd;clip-rule:evenodd;fill:url(#SVGID_29_);}
	.st31{fill-rule:evenodd;clip-rule:evenodd;fill:#9562A4;}
	.st32{fill-rule:evenodd;clip-rule:evenodd;fill:#5CA0AA;}
	.st33{clip-path:url(#SVGID_31_);fill-rule:evenodd;clip-rule:evenodd;fill:#3D7790;}
	.st34{fill-rule:evenodd;clip-rule:evenodd;fill:url(#SVGID_32_);}
	.st35{clip-path:url(#SVGID_34_);fill-rule:evenodd;clip-rule:evenodd;fill:#B3D9DF;}
	.st36{clip-path:url(#SVGID_34_);fill-rule:evenodd;clip-rule:evenodd;fill:#6AA9B5;}
	.st37{fill-rule:evenodd;clip-rule:evenodd;fill:url(#SVGID_35_);}
	.st38{clip-path:url(#SVGID_37_);fill-rule:evenodd;clip-rule:evenodd;fill:#FFFFFF;}
	.st39{fill:#285A73;}
	.st40{clip-path:url(#SVGID_39_);}
	.st41{fill-rule:evenodd;clip-rule:evenodd;fill:#C385B5;}
	.st42{fill-rule:evenodd;clip-rule:evenodd;fill:#FCF6FA;}
	.st43{clip-path:url(#SVGID_41_);}
	.st44{fill-rule:evenodd;clip-rule:evenodd;fill:#F1D6E5;}
	.st45{fill-rule:evenodd;clip-rule:evenodd;fill:#A75B9F;}
	
		.st46{clip-path:url(#SVGID_39_);fill-rule:evenodd;clip-rule:evenodd;fill:none;stroke:#822A84;stroke-width:2.7955;stroke-miterlimit:10;}
	.st47{fill:#692C79;}
	.st48{clip-path:url(#SVGID_39_);fill-rule:evenodd;clip-rule:evenodd;fill:url(#SVGID_42_);}
	.st49{opacity:0.4;clip-path:url(#SVGID_39_);fill-rule:evenodd;clip-rule:evenodd;fill:#3C1744;}
</style>
<g>
	<path class="st0" d="M708.39,412c5.41,4.49,18.05,13.29,20.85,26.87c1.56,7.54,10.72,0.22,18.48-42.51
		c2.06-11.35,3.27-21,6.68-30.47c2.98-8.28,7.83-16.43,13.98-25.46c5.35-7.87-2.5-17.67-8.14-20.72
		c-5.35-2.89-10.83-5.21-10.83-5.21C759.08,346,741.66,409.43,708.39,412z"/>
	<path class="st0" d="M138.2,412c-5.41,4.49-18.05,13.29-20.85,26.87c-1.56,7.54-10.72,0.22-18.48-42.51
		c-2.06-11.35-3.27-21-6.68-30.47c-2.98-8.28-7.83-16.43-13.98-25.46c-5.35-7.87,2.5-17.67,8.14-20.72
		c5.35-2.89,10.83-5.21,10.83-5.21C87.51,346,104.93,409.43,138.2,412z"/>
	<path class="st1" d="M597.83,252.89c0.37-0.89-4.89-2.77-9.41-3.91c-5.85-1.49-10.26-2.52-13.34-3.27l-3.7-9.76
		c1.64,0.4,12.69,2.66,19.4,4.17c8.86,2.01,12.33,3.18,12.5,1.58c0.2-1.85-5.81-3.77-15.92-6.35c-6.55-1.67-16.56-4.43-18.67-4.89
		c-1.4-3.06-2.1-4.12-4.04-7.9c4.29,0.48,11.83,2.51,19.63,4.07c14.56,2.93,23.42,5.57,23.66,3.32c0.24-2.25-11.79-5.61-18.7-7.08
		c-6.91-1.46-21.83-4.49-27.47-5.74c-2.61-4.13-4.42-5.77-5.93-8.22c4.06,0.63,9.68,2.12,17.46,3.61
		c22.95,4.38,28.35,5.34,28.24,3.45c-0.11-1.89-16.99-5.12-30.65-8.1c-8.67-1.89-18.3-4.57-23.24-4.89
		c-1.65-0.11-3.75,0.71-2.42,3.22c0.39,0.73,1.38,1.69,3.91,5.14c7.67,10.44,15.34,20.83,20.19,37.38
		c4.54,0.91,12.7,3.01,18.82,3.98C592.56,253.4,597.65,254.22,597.83,252.89z"/>
	<path class="st1" d="M248.76,252.89c-0.37-0.89,4.89-2.77,9.41-3.91c5.85-1.49,10.26-2.52,13.34-3.27l3.7-9.76
		c-1.64,0.4-12.69,2.66-19.4,4.17c-8.86,2.01-12.33,3.18-12.5,1.58c-0.2-1.85,5.81-3.77,15.92-6.35c6.55-1.67,16.56-4.43,18.67-4.89
		c1.4-3.06,2.1-4.12,4.04-7.9c-4.29,0.48-11.83,2.51-19.63,4.07c-14.56,2.93-23.42,5.57-23.66,3.32c-0.24-2.25,11.79-5.61,18.7-7.08
		c6.91-1.46,21.83-4.49,27.47-5.74c2.61-4.13,4.42-5.77,5.93-8.22c-4.06,0.63-9.68,2.12-17.46,3.61
		c-22.95,4.38-28.35,5.34-28.24,3.45c0.11-1.89,16.99-5.12,30.65-8.1c8.67-1.89,18.3-4.57,23.24-4.89c1.65-0.11,3.75,0.71,2.42,3.22
		c-0.39,0.73-1.38,1.69-3.91,5.14c-7.67,10.44-15.34,20.83-20.19,37.38c-4.54,0.91-12.7,3.01-18.82,3.98
		C254.04,253.4,248.94,254.22,248.76,252.89z"/>
	<g>
		<linearGradient id="SVGID_1_" gradientUnits="userSpaceOnUse" x1="405.5826" y1="341.3802" x2="405.5826" y2="243.9573">
			<stop  offset="2.700000e-07" style="stop-color:#93266B"/>
			<stop  offset="0.0148" style="stop-color:#94296D"/>
			<stop  offset="0.1464" style="stop-color:#A13D7F"/>
			<stop  offset="0.2836" style="stop-color:#AA488B"/>
			<stop  offset="0.4341" style="stop-color:#AE4C90"/>
		</linearGradient>
		<path class="st2" d="M405.31,290.38c-1.85,0.55-5.48-45.76-7.84-45.77l-21.42,0.94c0.28,6.76,5.06,1.26,5.32,8.18
			c0.22,5.89,0.43,11.44,0.62,16.75c0.12,3.24-2.61,6.77-5.03,8.83c-0.41,0.35-0.34,1.23,0.11,1.55c2.63,1.86,5.44,4.5,5.55,7.78
			c0.55,17.04,0.9,32.02,0.99,48.22c-1.53,1.52-4.43,0.25-4.48,4.52c0.31-0.02,9.17-0.54,17.48-0.88c0.14-3.48-4.05-1.9-4.22-4.05
			c-0.67-8.67-1.99-36.71-2.26-49.2c-0.31-14.01,10.15,49.22,10.17,49.27c2.56,3.77,5.37,0.47,5.8-3.62
			c3.47-19.63,5.47-34.15,6.57-41.96c1.16-8.16,2.13-9,2.02-0.71c-0.09,7.12-0.41,21.01-0.52,42.8c-0.15,6.5-4.21,1.28-4.18,6.95
			l23.49-0.09c0.11-3.89-4.44-0.73-4.58-6.51c-0.37-15.06-0.53-30.08-0.45-45.45c0.01-2.52,3.6-5.67,5.59-7.08
			c0.45-0.32,0.52-1.2,0.11-1.55c-2.77-2.36-5.55-6.24-5.48-9.89c0.1-5.3,0.22-10.59,0.37-15.89c0.22-7.64,5.58-1,6.11-9.23
			c-3.08-0.68-13.42-0.12-19.76-0.12c-1.59,0-3.16-0.69-3.6,2.7C410.4,257.2,407.24,290.54,405.31,290.38z"/>
		<linearGradient id="SVGID_2_" gradientUnits="userSpaceOnUse" x1="227.8707" y1="371.5878" x2="227.8707" y2="269.9478">
			<stop  offset="2.700000e-07" style="stop-color:#93266B"/>
			<stop  offset="0.0148" style="stop-color:#94296D"/>
			<stop  offset="0.1464" style="stop-color:#A13D7F"/>
			<stop  offset="0.2836" style="stop-color:#AA488B"/>
			<stop  offset="0.4341" style="stop-color:#AE4C90"/>
		</linearGradient>
		<path class="st3" d="M229.8,291.43c1.48,8.38,0.96,12.67-5.93,14.6c-0.52-0.05-1.83-6.95-3.18-14
			c-1.41-7.38-2.85-14.93-2.29-14.91C225.51,275.16,227.66,279.25,229.8,291.43L229.8,291.43z M204.48,311.93
			c2.84,1.59,6.5,4.3,7.11,7.57l5.3,28.47c0.69,3.78,1.66,8.31,2.2,12.19c0.43,3.1,0.6,4.16,0.38,5.57
			c-0.35,2.32-5.72,1.76-3.2,5.85l22.85-6.73c-0.3-4.69-3.86-1.3-5.01-2.47c-1.31-1.33-2.68-6.81-6.61-29.08
			c-0.39-2.24-4.54-19.43-2.29-21.11c8.29-1.91,10.28,47.21,21.88,49.53c5.25,1.05,8.98-3.34,10.36-8.78
			c1.73-6.83,0.24-15.34-1.37-16.88c-1.8,0.11,0.35,14.86-2.91,10.82c-5.54-10.15-3.31-31.27-19.67-36.59
			c4.99-1.34,15.73-4.1,5.27-33.05c-4.71-8.12-10.54-8.51-20.28-5.74c-5.35,1.52-16.1,4.94-20.95,6.41c1.1,5.64,3.96,1.06,5.6,4.02
			c1.1,1.98,2.4,6.31,4.45,16.1l0.59,3.15c0.59,3.17-1.79,6.95-3.96,9.22C203.84,310.79,204,311.67,204.48,311.93z"/>
		<linearGradient id="SVGID_3_" gradientUnits="userSpaceOnUse" x1="659.0037" y1="379.2397" x2="659.0037" y2="278.16">
			<stop  offset="2.700000e-07" style="stop-color:#93266B"/>
			<stop  offset="0.0148" style="stop-color:#94296D"/>
			<stop  offset="0.1464" style="stop-color:#A13D7F"/>
			<stop  offset="0.2836" style="stop-color:#AA488B"/>
			<stop  offset="0.4341" style="stop-color:#AE4C90"/>
		</linearGradient>
		<path class="st4" d="M646.96,373.52c2.67-7.44,19.06-79.72,20.68-85.56c9.12,3.41,6.58,12.3,4.66,27.1
			c-1.91,14.8-5.11,29.39-10.52,45.26C658.72,369.32,656.48,375.66,646.96,373.52L646.96,373.52z M641.76,313.06
			c1.97,2.47,4.31,6.22,3.61,9.39c-3.62,16.31-7.29,31.93-10.13,42.39c-1.91,7.61-7.11,0.06-8.63,5.67
			c3.77,2.2,18.33,5.64,22.74,7.18c23.06,8.1,28.45-17.3,33.55-36.91c0.44-1.71,0.86-3.42,1.25-5.14c0.7-3.09,3.86-5.15,6.76-6.35
			c0.48-0.2,0.65-1.04,0.28-1.49c-1.97-2.37-2.94-5.48-4.41-8.23l0-0.01c0.93-10.2,0.15-19.43-3.26-26.27
			c-5.49-9.47-32.21-15.35-35.72-15.13c-1.44,5,6.17,5.24,5.02,9.45c-1.03,5-2.14,10.29-3.3,15.7c-0.83,3.92-3.74,6.55-7.44,8.23
			C641.59,311.76,641.42,312.63,641.76,313.06z"/>
		<linearGradient id="SVGID_4_" gradientUnits="userSpaceOnUse" x1="178.0383" y1="388.3975" x2="178.0383" y2="281.0789">
			<stop  offset="2.700000e-07" style="stop-color:#93266B"/>
			<stop  offset="0.0148" style="stop-color:#94296D"/>
			<stop  offset="0.1464" style="stop-color:#A13D7F"/>
			<stop  offset="0.2836" style="stop-color:#AA488B"/>
			<stop  offset="0.4341" style="stop-color:#AE4C90"/>
		</linearGradient>
		<path class="st5" d="M147.1,295.35c1.11,5.95,4.21,1.67,5.75,3.41c2.66,3.01,4.29,12.17,5.12,15.79c0.22,0.98,0.49,2.08,0.78,3.29
			c0.8,3.32-1.14,7.05-3.37,9.6c-0.35,0.41-0.15,1.27,0.34,1.52c2.87,1.44,6.86,4.19,7.65,7.38c4.48,17.9,9.64,39.26,9.17,45.5
			c-3.43,2.5-5.61,2.18-3.47,6.56l39.69-14.41c0.76-0.25-0.61-3.89-3.58-14.25c-3.14-10.94-2.75-11.39-4.15-11.02
			c-0.93,0.2-0.32,10.77-0.7,14.21c-0.93,8.45-3.61,10.19-14.37,13.93l-11.13-47.84c5.24-1.9,9.86-3.54,13.67-4.86
			c1.86-0.64,3.39,0.69,4.78,2.29c1.71,1.97,2.42,4.8,4.83,4c0.87-0.1,0.36-1.1-2.15-12.37c-2.51-11.27-2.4-11.85-3.16-11.68
			c-2.59,0.86-1.94,1.96-2.25,5.87c-0.31,3.91-11.32,7.87-17.21,9.98c-1.34-6.09-5.76-26.92-5.71-28.94
			c10.66-5.67,16.2,3.84,23.74,11.05c1.64-0.09,1.25-1.11-1.35-13.65c-0.8-3.87-1.62-9.92-2.74-9.61l-38.18,13.55L147.1,295.35z"/>
		<linearGradient id="SVGID_5_" gradientUnits="userSpaceOnUse" x1="460.7405" y1="341.4122" x2="460.7405" y2="244.372">
			<stop  offset="2.700000e-07" style="stop-color:#93266B"/>
			<stop  offset="0.0148" style="stop-color:#94296D"/>
			<stop  offset="0.1464" style="stop-color:#A13D7F"/>
			<stop  offset="0.2836" style="stop-color:#AA488B"/>
			<stop  offset="0.4341" style="stop-color:#AE4C90"/>
		</linearGradient>
		<path class="st6" d="M461.33,249.57c5.92,0.18,6.82,1.01,7.4,6.6c4.19,27.93-5.01,23.11-7.55,23.34L461.33,249.57L461.33,249.57z
			 M439.64,279.56c2.84,2.38,5.19,5.21,5.13,8.9c-0.25,15.02-0.49,29.95-0.55,44.66c-0.03,5.97-5.25,1.7-5.1,7.1
			c4.11,0.11,23.36,0.97,27.26,1.19c0.01-4.23-5.09-2.35-5.32-5.31c-0.61-7.84-0.07-32.4-0.17-50.73
			c14.26,0.8,21.2-3.29,21.46-17.24c0.39-20.65-9.6-22.53-21.78-23.06c-6.53-0.28-13.04-0.51-19.99-0.7
			c-0.94,4.51,3.99,3.19,4.75,8.47c-0.03,5.53,0.24,10.61-0.11,16.6c-0.2,3.44-2.78,6.57-5.57,8.57
			C439.22,278.32,439.22,279.21,439.64,279.56z"/>
		<linearGradient id="SVGID_6_" gradientUnits="userSpaceOnUse" x1="609.7985" y1="366.6167" x2="609.7985" y2="262.6292">
			<stop  offset="2.700000e-07" style="stop-color:#93266B"/>
			<stop  offset="0.0148" style="stop-color:#94296D"/>
			<stop  offset="0.1464" style="stop-color:#A13D7F"/>
			<stop  offset="0.2836" style="stop-color:#AA488B"/>
			<stop  offset="0.4341" style="stop-color:#AE4C90"/>
		</linearGradient>
		<path class="st7" d="M578.52,357.7c0.06,0.11,11.79,2.8,16.66,4.05c1.35-4.74-4.45-4.37-3.15-8.64
			c1.92-6.28,7.18-47.95,8.85-47.54c1.85,0.46,5.83,29.47,7.69,43.66c2.5,18.99,6.4,20.92,8.49,12.99
			c1.35-5.16,5.79-25.39,10.14-44.75c0.75-3.34,4.7-5.96,7.7-7.47c0.49-0.25,0.69-1.11,0.34-1.52c-2.2-2.53-4.45-6.79-3.68-10.1
			c1.03-4.44,1.99-8.44,2.8-11.7c2.79-11.19,6.45-7.26,6.72-11.18c-4.96-1.45-15.48-4.39-19.73-5.54
			c-2.35,7.42,10.03-1.06,4.75,22.42c-1.71,9.67-1.96,8.99-4.16,18.54c-2.49-7.91-7.11-32.67-8.94-39.08
			c-1.3-6.34-7.4-5.89-21.63-9.21c-0.48,4.01,2.51,3.95,5.5,5.36c2.3,1.08,0.67,8.21-0.19,14.73c-0.32,2.22-0.65,4.49-0.99,6.79
			c-0.47,3.19-3.66,5.85-6.47,7.32c-0.48,0.25-0.6,1.13-0.24,1.54c2.47,2.75,4.5,6.02,3.92,9.67c-2.31,14.45-5.49,28.64-8.4,42.98
			C583.22,357.22,580.17,350.95,578.52,357.7z"/>
		<linearGradient id="SVGID_7_" gradientUnits="userSpaceOnUse" x1="309.1718" y1="353.1104" x2="309.1718" y2="252.5205">
			<stop  offset="2.700000e-07" style="stop-color:#93266B"/>
			<stop  offset="0.0148" style="stop-color:#94296D"/>
			<stop  offset="0.1464" style="stop-color:#A13D7F"/>
			<stop  offset="0.2836" style="stop-color:#AA488B"/>
			<stop  offset="0.4341" style="stop-color:#AE4C90"/>
		</linearGradient>
		<path class="st8" d="M288.75,353.11c5.13-0.99,9.98-1.9,14.9-2.78c0.11-3.41-2.22-2.63-3.33-3.94c0.08-7.94-0.37-40.73,0.01-51
			c0.05-1.26,0.77-0.43,0.77-0.43c3.13,11.68,7.95,35.69,10.28,46.65c0.17,4.19-5.15,1.34-4.8,8.37c7.56-1.41,18.08-3,24.01-3.82
			c0.23-1.53-0.79-3.21-2.24-3.48c-1.04-0.19-1.98,0.1-2.95-2.05c-3.22-7.1-7.46-26.24-11.28-45.19c-0.61-3.03,1.95-6.67,3.91-8.92
			c0.36-0.41,0.22-1.29-0.26-1.53c-3.07-1.54-6.6-4.5-7.25-7.9c-1.37-7.07-2.57-14.33-3.55-19.2c-0.44-2.22,3.62-0.55,2.79-5.37
			l-22.01,3.59c0.28,4.97,5.9,2.12,6.06,3.95c0.43,5.13,0.56,12.46,0.61,19.84c0.03,3.58-2.59,7.25-5.32,9.57
			c-0.41,0.35-0.34,1.23,0.11,1.55c3.03,2.14,5.24,4.29,5.22,7.93c-0.15,24.31-0.94,48.69-2.75,49.03
			C291.55,348.08,288.19,349.56,288.75,353.11z"/>
		<linearGradient id="SVGID_8_" gradientUnits="userSpaceOnUse" x1="268.0041" y1="358.3631" x2="268.0041" y2="258.5281">
			<stop  offset="2.700000e-07" style="stop-color:#93266B"/>
			<stop  offset="0.0148" style="stop-color:#94296D"/>
			<stop  offset="0.1464" style="stop-color:#A13D7F"/>
			<stop  offset="0.2836" style="stop-color:#AA488B"/>
			<stop  offset="0.4341" style="stop-color:#AE4C90"/>
		</linearGradient>
		<path class="st9" d="M249.08,264.03c0.6,5.03,4.46,2.42,6.69,3.62c1.56,5.1,11.88,71.02,11.99,81.72
			c0.26,7.03-5.92,3.58-4.43,8.99l23.58-4.75c0.33-4.78-4.02-0.85-5.25-3.72c-0.76-1.78-1.53-5.69-2.68-14.54
			c-2.04-15.64-7.21-58.07-8.71-70.8c1.59-2.01,5.85-1.22,4.78-6.04C270.39,259.45,253.51,262.53,249.08,264.03z"/>
		<linearGradient id="SVGID_9_" gradientUnits="userSpaceOnUse" x1="351.7611" y1="345.7992" x2="351.7611" y2="246.098">
			<stop  offset="2.700000e-07" style="stop-color:#93266B"/>
			<stop  offset="0.0148" style="stop-color:#94296D"/>
			<stop  offset="0.1464" style="stop-color:#A13D7F"/>
			<stop  offset="0.2836" style="stop-color:#AA488B"/>
			<stop  offset="0.4341" style="stop-color:#AE4C90"/>
		</linearGradient>
		<path class="st10" d="M327.92,250.07c0.09,6.11,4.15,2.15,5.37,4.19c2.11,3.53,1.95,12.51,2.16,16.26
			c0.04,0.78,0.1,1.65,0.16,2.58c0.26,4.04-1.98,7.51-5.11,10.18c-0.41,0.35-0.34,1.23,0.11,1.55c2.44,1.73,6.29,5.48,6.52,8.53
			c1.4,18.59,2.86,40.66,1.36,46.7c-3.8,1.74-5.91,0.97-4.53,5.74l41.23-4.16c0.8-0.08,0.41-5.64-0.77-16.5
			c-1.25-11.47-0.8-11.83-2.23-11.76c-0.95,0-1.74,8.9-2.69,12.21c-2.34,8.14-5.5,12.2-16.74,13.62l-3.08-50.66
			c5.49-0.77,8.74-0.54,12.73-1.03c1.94-0.24,3.23,1.4,4.33,3.27c1.36,2.31,1.58,5.26,4.09,4.97c0.87,0.09,0.54-1.01-0.03-12.67
			c-0.58-11.66-0.37-12.21-1.15-12.21c-2.7,0.3-2.07,3.44-3.04,7.24c-0.97,3.79-10.94,3.26-17.11,4.1
			c-0.29-6.3-1.37-27.65-0.98-29.63c11.3-2.29,13.49,6.56,19.71,15.28c1.63,0.26,2.01-1.19,1.56-14.12c-0.14-3.99,0-7.72-1.15-7.65
			l-38.6,3.69L327.92,250.07z"/>
		<linearGradient id="SVGID_10_" gradientUnits="userSpaceOnUse" x1="508.4311" y1="346.851" x2="508.4311" y2="247.085">
			<stop  offset="2.700000e-07" style="stop-color:#93266B"/>
			<stop  offset="0.0148" style="stop-color:#94296D"/>
			<stop  offset="0.1464" style="stop-color:#A13D7F"/>
			<stop  offset="0.2836" style="stop-color:#AA488B"/>
			<stop  offset="0.4341" style="stop-color:#AE4C90"/>
		</linearGradient>
		<path class="st11" d="M518.25,269.85c-0.71,8.48-2.29,13.51-9.45,13.63c-0.49-0.18-0.01-8.21,0.49-15.37
			c0.51-7.5,0.84-14.85,1.37-14.68C518.33,254.31,519.28,257.53,518.25,269.85L518.25,269.85z M488.63,282.21
			c2.66,2.52,5.16,5.89,4.89,9.58l-2.17,29.46c-0.3,3.83-0.51,8.46-0.98,12.35c-0.37,3.11-0.14,3.22-0.7,4.53
			c-0.93,2.15-6.55,0.08-5.16,4.67l23.67,2.53c0.91-4.61-3.67-4.13-3.85-5.76c-0.14-1.3,0.08-7.77,0.46-15.67
			c0.58-11.72,1.54-26.58,2.3-32.34c0.2-1.52,0.84-2.53,1.41-2.8c8.51,0.27-1.91,52.12,8.72,57.31c4.81,2.35,9.53-0.94,12.25-5.85
			c3.42-6.16,3.62-15.47,2.45-17.37c-1.77-0.36-1.05,14.2-5.04,10.42c-2.78-11.22,5.13-38.7-9.86-43.12
			c5.17-0.03,16.24-1.08,13.5-31.74c-1.92-7.07-7.41-7.8-18.52-9.16c-5.56,0.11-16.28-2.34-21.35-2.16
			c-0.37,5.73,3.38,3.5,4.22,6.78c0.56,2.2,0.71,6.71,0.21,16.7l-0.12,1.64c-0.26,3.48-3.29,6.6-6.22,8.44
			C488.28,280.95,488.23,281.83,488.63,282.21z"/>
		<linearGradient id="SVGID_11_" gradientUnits="userSpaceOnUse" x1="558.2029" y1="356.221" x2="558.2029" y2="253.5992">
			<stop  offset="2.700000e-07" style="stop-color:#93266B"/>
			<stop  offset="0.0148" style="stop-color:#94296D"/>
			<stop  offset="0.1464" style="stop-color:#A13D7F"/>
			<stop  offset="0.2836" style="stop-color:#AA488B"/>
			<stop  offset="0.4341" style="stop-color:#AE4C90"/>
		</linearGradient>
		<path class="st12" d="M543.51,253.6c-1.03,5.97,3.67,4.25,4.49,6.55c1.43,3.99-0.37,12.67-0.85,16.37
			c-0.16,0.74-0.29,1.45-0.38,2.15c-0.5,3.78-3.11,6.59-6.48,8.55c-0.47,0.27-0.55,1.15-0.17,1.55c2.36,2.4,4.97,5.91,4.57,9.32
			c-1.5,12.88-2.72,29.67-5.81,42.8c-2.02,8.6-6.52,1.82-6.99,7.79c14.45,2.45,26.35,4.68,39.58,7.46
			c3.39,0.73,3.86-2.88,6.58-24.47c0.31-2.44,0.21-4.05-0.99-4.12c-5.42,14.77-7.87,22.69-25.68,20.25l6.9-51.3
			c5.52,0.68,8.68,1.84,12.67,2.4c1.94,0.27,2.4,3.34,3.13,5.45c0.91,2.6,0.59,5.52,3.1,5.9c0.84,0.31,0.72-0.84,2.28-12.33
			c1.56-11.49,1.86-11.97,1.1-12.17c-2.7-0.41-2.66,2.81-4.3,6.25c-1.64,3.44-11.24-0.15-17.44-0.94
			c0.86-6.21,3.64-26.75,4.38-28.58c11.49,0.7,15.64,19.16,17.32,19.97c1.45,0.7,3.85-15.8,3.98-17.76c0.22-3.39-1.1-3.54-1.98-3.61
			l-36.91-7.2L543.51,253.6z"/>
		<linearGradient id="SVGID_12_" gradientUnits="userSpaceOnUse" x1="707.7012" y1="404.4375" x2="707.7012" y2="295.1593">
			<stop  offset="2.700000e-07" style="stop-color:#93266B"/>
			<stop  offset="0.0148" style="stop-color:#94296D"/>
			<stop  offset="0.1464" style="stop-color:#A13D7F"/>
			<stop  offset="0.2836" style="stop-color:#AA488B"/>
			<stop  offset="0.4341" style="stop-color:#AE4C90"/>
		</linearGradient>
		<path class="st13" d="M698.83,295.16c-1.67,5.7,3.37,4.62,3.96,7.09c1.03,4.29-1.71,12.52-2.58,16.08
			c-0.21,0.87-0.45,1.86-0.71,2.93c-0.78,3.2-4.28,5.65-7.27,6.9c-0.5,0.21-0.7,1.07-0.37,1.51c1.92,2.55,4.04,6.28,3.27,9.46
			c-2.84,11.63-8.99,38.03-13.67,45.17c-4.17-0.22-5.98-1.95-6.02,3.13l39.92,16.99c0.79,0.31,1.72-2.59,4.14-13.14
			c1.81-7.89,3.04-12.03,1.65-12.71c-2.23-1.1-2.29,19.53-23.96,11.62l11.72-48.94c5.51,1.93,8.43,4.31,12.41,5.77
			c1.94,0.71,2.71,2.85,3.24,5.11c0.65,2.79,0.02,5.62,2.52,6.57c0.81,0.5,0.81-0.67,3.6-11.74c2.79-11.06,3.14-11.47,2.39-11.85
			c-2.69-1.02-2.98,2.19-5.01,5.23c-2.02,3.04-11.75-1.4-17.94-3.6c1.53-5.97,7.2-28.41,8.14-30.06
			c11.56,3.32,10.81,13.88,14.31,24.94c1.5,1.03,2.28-0.13,5.56-12.31c1.01-3.75,2.59-6.7,1.45-7.19l-38.65-16.23L698.83,295.16z"/>
		<linearGradient id="SVGID_13_" gradientUnits="userSpaceOnUse" x1="162.3101" y1="406.8297" x2="162.3101" y2="241.9363">
			<stop  offset="2.700000e-07" style="stop-color:#93266B"/>
			<stop  offset="0.0148" style="stop-color:#94296D"/>
			<stop  offset="0.1464" style="stop-color:#A13D7F"/>
			<stop  offset="0.2836" style="stop-color:#AA488B"/>
			<stop  offset="0.4341" style="stop-color:#AE4C90"/>
		</linearGradient>
		<path class="st14" d="M132.46,345.9c4.77-1.82,8.98-3.97,12.51-5.19c1.86-0.64,3.41,1.44,4.8,3.04c1.71,1.97,2.42,4.8,4.83,4
			c0.87-0.1,0.36-1.1-2.15-12.37c-2.51-11.27-2.4-11.85-3.16-11.68c-2.59,0.86-1.94,1.96-2.25,5.87
			c-0.31,3.91-11.22,7.46-17.15,10.02c-1.27-3.93-8.45-34.43-9.43-38.65c12.53-5.19,48.59-19.85,71.64-26.29
			c3.52-0.98,10.43-3.51,17.65-5.79c34.78-11.02,15.34-38.99-4.6-21.08c10.65,8.62-4.25,15.45-10.88,17.76
			c-23.68,8.26-93.01,36.28-98.55,39.55c2.95,7.83,7.36,0.15,8.54,3.18c1.66,4.27,3.66,9.08,5.36,13.79
			c1.75,4.83,3.12,10.14,4.49,15.2c0.85,3.14-0.97,7.2-2.85,9.77c-0.32,0.44-0.04,1.28,0.47,1.48c2.92,1.17,6.29,3.06,7.13,6.16
			c0.63,2.34,1.28,4.7,1.92,7.06c4.5,16.45,9.19,32.78,8.86,38.23c-0.28,4.63-4.89,1.08-3.14,6.85l24.55-10.88
			c-0.77-4.35-4.88-1.05-6.34-2.73c-1.2-1.38-2.26-4.99-5.39-17.1c-1.86-7.18-6.02-20.08-7.63-27.7
			C131.23,346.29,130.79,346.54,132.46,345.9z"/>
	</g>
	<g>
		<defs>
			<path id="SVGID_14_" d="M411.76,246.87c0.45-3.39,2.01-2.7,3.6-2.7c6.34,0.01,16.68-0.56,19.76,0.12
				c-0.52,8.24-5.89,1.6-6.11,9.23c-0.15,5.29-0.27,10.59-0.37,15.89c-0.07,3.66,2.71,7.53,5.48,9.89c0.41,0.35,0.34,1.23-0.11,1.55
				c-1.99,1.41-5.58,4.56-5.59,7.08c-0.08,15.38,0.08,30.39,0.45,45.45c0.14,5.78,4.68,2.62,4.58,6.51l-23.49,0.09
				c-0.02-5.67,4.03-0.45,4.18-6.95c0.11-21.79,0.43-35.68,0.52-42.8c0.1-8.29-0.87-7.45-2.02,0.71c-1.1,7.81-3.1,22.33-6.57,41.96
				c-0.43,4.1-3.24,7.39-5.8,3.62c-0.02-0.05-10.47-63.29-10.17-49.27c0.27,12.49,1.6,40.53,2.26,49.2
				c0.16,2.15,4.36,0.57,4.22,4.05c-8.31,0.34-17.17,0.86-17.48,0.88c0.05-4.26,2.95-2.99,4.48-4.52
				c-0.09-16.2-0.43-31.18-0.99-48.22c-0.11-3.28-2.91-5.92-5.55-7.78c-0.45-0.32-0.52-1.2-0.11-1.55c2.42-2.06,5.14-5.59,5.03-8.83
				c-0.19-5.31-0.4-10.87-0.62-16.75c-0.26-6.93-5.03-1.42-5.32-8.18l21.42-0.94c2.36,0.01,5.99,46.32,7.84,45.77
				C407.24,290.54,410.4,257.2,411.76,246.87z M229.8,291.43c-2.14-12.18-4.29-16.27-11.4-14.31c-0.56-0.03,0.88,7.52,2.29,14.91
				c1.35,7.05,2.66,13.95,3.18,14C230.76,304.1,231.28,299.81,229.8,291.43L229.8,291.43z M204.21,310.4
				c2.17-2.28,4.55-6.06,3.96-9.22l-0.59-3.15c-2.05-9.79-3.35-14.12-4.45-16.1c-1.65-2.96-4.5,1.62-5.6-4.02
				c4.85-1.47,15.6-4.9,20.95-6.41c9.74-2.76,15.57-2.38,20.28,5.74c10.46,28.95-0.28,31.71-5.27,33.05
				c16.36,5.32,14.13,26.45,19.67,36.59c3.26,4.04,1.1-10.71,2.91-10.82c1.61,1.54,3.1,10.05,1.37,16.88
				c-1.38,5.44-5.11,9.83-10.36,8.78c-11.6-2.31-13.59-51.44-21.88-49.53c-2.25,1.68,1.9,18.87,2.29,21.11
				c3.93,22.27,5.3,27.75,6.61,29.08c1.15,1.17,4.71-2.22,5.01,2.47l-22.85,6.73c-2.52-4.09,2.85-3.53,3.2-5.85
				c0.21-1.41,0.05-2.46-0.38-5.57c-0.54-3.88-1.51-8.41-2.2-12.19l-5.3-28.47c-0.61-3.28-4.27-5.98-7.11-7.57
				C204,311.67,203.84,310.79,204.21,310.4z M646.96,373.52c9.52,2.14,11.76-4.2,14.82-13.19c5.41-15.87,8.61-30.46,10.52-45.26
				c1.91-14.8,4.46-23.69-4.66-27.1C666.03,293.8,649.64,366.08,646.96,373.52L646.96,373.52z M642.09,311.54
				c3.7-1.68,6.61-4.31,7.44-8.23c1.15-5.4,2.26-10.69,3.3-15.7c1.15-4.21-6.46-4.45-5.02-9.45c3.5-0.22,30.22,5.66,35.72,15.13
				c3.41,6.84,4.19,16.08,3.26,26.27l0,0.01c1.47,2.74,2.45,5.85,4.41,8.23c0.37,0.45,0.2,1.29-0.28,1.49
				c-2.9,1.19-6.06,3.25-6.76,6.35c-0.39,1.72-0.81,3.43-1.25,5.14c-5.1,19.62-10.5,45.01-33.55,36.91
				c-4.41-1.55-18.97-4.99-22.74-7.18c1.51-5.61,6.71,1.94,8.63-5.67c2.85-10.46,6.52-26.08,10.13-42.39
				c0.7-3.17-1.63-6.93-3.61-9.39C641.42,312.63,641.59,311.76,642.09,311.54z M147.1,295.35c1.11,5.95,4.21,1.67,5.75,3.41
				c2.66,3.01,4.29,12.17,5.12,15.79c0.22,0.98,0.49,2.08,0.78,3.29c0.8,3.32-1.14,7.05-3.37,9.6c-0.35,0.41-0.15,1.27,0.34,1.52
				c2.87,1.44,6.86,4.19,7.65,7.38c4.48,17.9,9.64,39.26,9.17,45.5c-3.43,2.5-5.61,2.18-3.47,6.56l39.69-14.41
				c0.76-0.25-0.61-3.89-3.58-14.25c-3.14-10.94-2.75-11.39-4.15-11.02c-0.93,0.2-0.32,10.77-0.7,14.21
				c-0.93,8.45-3.61,10.19-14.37,13.93l-11.13-47.84c5.24-1.9,9.86-3.54,13.67-4.86c1.86-0.64,3.39,0.69,4.78,2.29
				c1.71,1.97,2.42,4.8,4.83,4c0.87-0.1,0.36-1.1-2.15-12.37c-2.51-11.27-2.4-11.85-3.16-11.68c-2.59,0.86-1.94,1.96-2.25,5.87
				c-0.31,3.91-11.32,7.87-17.21,9.98c-1.34-6.09-5.76-26.92-5.71-28.94c10.66-5.67,16.2,3.84,23.74,11.05
				c1.64-0.09,1.25-1.11-1.35-13.65c-0.8-3.87-1.62-9.92-2.74-9.61l-38.18,13.55L147.1,295.35z M461.33,249.57l-0.15,29.94
				c2.54-0.24,11.74,4.59,7.55-23.34C468.15,250.58,467.25,249.75,461.33,249.57L461.33,249.57z M439.66,278.01
				c2.79-2,5.37-5.13,5.57-8.57c0.35-5.99,0.08-11.06,0.11-16.6c-0.76-5.27-5.7-3.96-4.75-8.47c6.95,0.18,13.46,0.41,19.99,0.7
				c12.19,0.53,22.17,2.42,21.78,23.06c-0.26,13.95-7.2,18.04-21.46,17.24c0.1,18.33-0.44,42.89,0.17,50.73
				c0.23,2.95,5.32,1.08,5.32,5.31c-3.9-0.22-23.15-1.08-27.26-1.19c-0.15-5.39,5.07-1.13,5.1-7.1c0.06-14.71,0.3-29.64,0.55-44.66
				c0.06-3.69-2.29-6.52-5.13-8.9C439.22,279.21,439.22,278.32,439.66,278.01z M578.52,357.7c0.06,0.11,11.79,2.8,16.66,4.05
				c1.35-4.74-4.45-4.37-3.15-8.64c1.92-6.28,7.18-47.95,8.85-47.54c1.85,0.46,5.83,29.47,7.69,43.66
				c2.5,18.99,6.4,20.92,8.49,12.99c1.35-5.16,5.79-25.39,10.14-44.75c0.75-3.34,4.7-5.96,7.7-7.47c0.49-0.25,0.69-1.11,0.34-1.52
				c-2.2-2.53-4.45-6.79-3.68-10.1c1.03-4.44,1.99-8.44,2.8-11.7c2.79-11.19,6.45-7.26,6.72-11.18c-4.96-1.45-15.48-4.39-19.73-5.54
				c-2.35,7.42,10.03-1.06,4.75,22.42c-1.71,9.67-1.96,8.99-4.16,18.54c-2.49-7.91-7.11-32.67-8.94-39.08
				c-1.3-6.34-7.4-5.89-21.63-9.21c-0.48,4.01,2.51,3.95,5.5,5.36c2.3,1.08,0.67,8.21-0.19,14.73c-0.32,2.22-0.65,4.49-0.99,6.79
				c-0.47,3.19-3.66,5.85-6.47,7.32c-0.48,0.25-0.6,1.13-0.24,1.54c2.47,2.75,4.5,6.02,3.92,9.67c-2.31,14.45-5.49,28.64-8.4,42.98
				C583.22,357.22,580.17,350.95,578.52,357.7z M288.75,353.11c5.13-0.99,9.98-1.9,14.9-2.78c0.11-3.41-2.22-2.63-3.33-3.94
				c0.08-7.94-0.37-40.73,0.01-51c0.05-1.26,0.77-0.43,0.77-0.43c3.13,11.68,7.95,35.69,10.28,46.65c0.17,4.19-5.15,1.34-4.8,8.37
				c7.56-1.41,18.08-3,24.01-3.82c0.23-1.53-0.79-3.21-2.24-3.48c-1.04-0.19-1.98,0.1-2.95-2.05c-3.22-7.1-7.46-26.24-11.28-45.19
				c-0.61-3.03,1.95-6.67,3.91-8.92c0.36-0.41,0.22-1.29-0.26-1.53c-3.07-1.54-6.6-4.5-7.25-7.9c-1.37-7.07-2.57-14.33-3.55-19.2
				c-0.44-2.22,3.62-0.55,2.79-5.37l-22.01,3.59c0.28,4.97,5.9,2.12,6.06,3.95c0.43,5.13,0.56,12.46,0.61,19.84
				c0.03,3.58-2.59,7.25-5.32,9.57c-0.41,0.35-0.34,1.23,0.11,1.55c3.03,2.14,5.24,4.29,5.22,7.93
				c-0.15,24.31-0.94,48.69-2.75,49.03C291.55,348.08,288.19,349.56,288.75,353.11z M249.08,264.03c0.6,5.03,4.46,2.42,6.69,3.62
				c1.56,5.1,11.88,71.02,11.99,81.72c0.26,7.03-5.92,3.58-4.43,8.99l23.58-4.75c0.33-4.78-4.02-0.85-5.25-3.72
				c-0.76-1.78-1.53-5.69-2.68-14.54c-2.04-15.64-7.21-58.07-8.71-70.8c1.59-2.01,5.85-1.22,4.78-6.04
				C270.39,259.45,253.51,262.53,249.08,264.03z M327.92,250.07c0.09,6.11,4.15,2.15,5.37,4.19c2.11,3.53,1.95,12.51,2.16,16.26
				c0.04,0.78,0.1,1.65,0.16,2.58c0.26,4.04-1.98,7.51-5.11,10.18c-0.41,0.35-0.34,1.23,0.11,1.55c2.44,1.73,6.29,5.48,6.52,8.53
				c1.4,18.59,2.86,40.66,1.36,46.7c-3.8,1.74-5.91,0.97-4.53,5.74l41.23-4.16c0.8-0.08,0.41-5.64-0.77-16.5
				c-1.25-11.47-0.8-11.83-2.23-11.76c-0.95,0-1.74,8.9-2.69,12.21c-2.34,8.14-5.5,12.2-16.74,13.62l-3.08-50.66
				c5.49-0.77,8.74-0.54,12.73-1.03c1.94-0.24,3.23,1.4,4.33,3.27c1.36,2.31,1.58,5.26,4.09,4.97c0.87,0.09,0.54-1.01-0.03-12.67
				c-0.58-11.66-0.37-12.21-1.15-12.21c-2.7,0.3-2.07,3.44-3.04,7.24c-0.97,3.79-10.94,3.26-17.11,4.1
				c-0.29-6.3-1.37-27.65-0.98-29.63c11.3-2.29,13.49,6.56,19.71,15.28c1.63,0.26,2.01-1.19,1.56-14.12c-0.14-3.99,0-7.72-1.15-7.65
				l-38.6,3.69L327.92,250.07z M518.25,269.85c1.03-12.33,0.08-15.54-7.59-16.43c-0.53-0.17-0.86,7.18-1.37,14.68
				c-0.49,7.16-0.98,15.19-0.49,15.37C515.95,283.37,517.54,278.34,518.25,269.85L518.25,269.85z M488.74,280.66
				c2.93-1.84,5.96-4.96,6.22-8.44l0.12-1.64c0.51-9.99,0.36-14.51-0.21-16.7c-0.84-3.28-4.58-1.04-4.22-6.78
				c5.07-0.19,15.79,2.26,21.35,2.16c11.1,1.36,16.59,2.09,18.52,9.16c2.74,30.66-8.33,31.71-13.5,31.74
				c15,4.42,7.09,31.9,9.86,43.12c4,3.78,3.27-10.78,5.04-10.42c1.17,1.9,0.96,11.21-2.45,17.37c-2.72,4.91-7.44,8.2-12.25,5.85
				c-10.63-5.19-0.21-57.05-8.72-57.31c-0.57,0.27-1.2,1.28-1.41,2.8c-0.77,5.76-1.73,20.62-2.3,32.34
				c-0.39,7.9-0.6,14.37-0.46,15.67c0.17,1.63,4.75,1.15,3.85,5.76l-23.67-2.53c-1.39-4.59,4.23-2.52,5.16-4.67
				c0.57-1.31,0.33-1.42,0.7-4.53c0.47-3.89,0.68-8.52,0.98-12.35l2.17-29.46c0.27-3.68-2.23-7.05-4.89-9.58
				C488.23,281.83,488.28,280.95,488.74,280.66z M543.51,253.6c-1.03,5.97,3.67,4.25,4.49,6.55c1.43,3.99-0.37,12.67-0.85,16.37
				c-0.16,0.74-0.29,1.45-0.38,2.15c-0.5,3.78-3.11,6.59-6.48,8.55c-0.47,0.27-0.55,1.15-0.17,1.55c2.36,2.4,4.97,5.91,4.57,9.32
				c-1.5,12.88-2.72,29.67-5.81,42.8c-2.02,8.6-6.52,1.82-6.99,7.79c14.45,2.45,26.35,4.68,39.58,7.46
				c3.39,0.73,3.86-2.88,6.58-24.47c0.31-2.44,0.21-4.05-0.99-4.12c-5.42,14.77-7.87,22.69-25.68,20.25l6.9-51.3
				c5.52,0.68,8.68,1.84,12.67,2.4c1.94,0.27,2.4,3.34,3.13,5.45c0.91,2.6,0.59,5.52,3.1,5.9c0.84,0.31,0.72-0.84,2.28-12.33
				c1.56-11.49,1.86-11.97,1.1-12.17c-2.7-0.41-2.66,2.81-4.3,6.25c-1.64,3.44-11.24-0.15-17.44-0.94
				c0.86-6.21,3.64-26.75,4.38-28.58c11.49,0.7,15.64,19.16,17.32,19.97c1.45,0.7,3.85-15.8,3.98-17.76
				c0.22-3.39-1.1-3.54-1.98-3.61l-36.91-7.2L543.51,253.6z M698.83,295.16c-1.67,5.7,3.37,4.62,3.96,7.09
				c1.03,4.29-1.71,12.52-2.58,16.08c-0.21,0.87-0.45,1.86-0.71,2.93c-0.78,3.2-4.28,5.65-7.27,6.9c-0.5,0.21-0.7,1.07-0.37,1.51
				c1.92,2.55,4.04,6.28,3.27,9.46c-2.84,11.63-8.99,38.03-13.67,45.17c-4.17-0.22-5.98-1.95-6.02,3.13l39.92,16.99
				c0.79,0.31,1.72-2.59,4.14-13.14c1.81-7.89,3.04-12.03,1.65-12.71c-2.23-1.1-2.29,19.53-23.96,11.62l11.72-48.94
				c5.51,1.93,8.43,4.31,12.41,5.77c1.94,0.71,2.71,2.85,3.24,5.11c0.65,2.79,0.02,5.62,2.52,6.57c0.81,0.5,0.81-0.67,3.6-11.74
				c2.79-11.06,3.14-11.47,2.39-11.85c-2.69-1.02-2.98,2.19-5.01,5.23c-2.02,3.04-11.75-1.4-17.94-3.6
				c1.53-5.97,7.2-28.41,8.14-30.06c11.56,3.32,10.81,13.88,14.31,24.94c1.5,1.03,2.28-0.13,5.56-12.31
				c1.01-3.75,2.59-6.7,1.45-7.19l-38.65-16.23L698.83,295.16z M132.46,345.9c4.77-1.82,8.98-3.97,12.51-5.19
				c1.86-0.64,3.41,1.44,4.8,3.04c1.71,1.97,2.42,4.8,4.83,4c0.87-0.1,0.36-1.1-2.15-12.37c-2.51-11.27-2.4-11.85-3.16-11.68
				c-2.59,0.86-1.94,1.96-2.25,5.87c-0.31,3.91-11.22,7.46-17.15,10.02c-1.27-3.93-8.45-34.43-9.43-38.65
				c12.53-5.19,48.59-19.85,71.64-26.29c3.52-0.98,10.43-3.51,17.65-5.79c34.78-11.02,15.34-38.99-4.6-21.08
				c10.65,8.62-4.25,15.45-10.88,17.76c-23.68,8.26-93.01,36.28-98.55,39.55c2.95,7.83,7.36,0.15,8.54,3.18
				c1.66,4.27,3.66,9.08,5.36,13.79c1.75,4.83,3.12,10.14,4.49,15.2c0.85,3.14-0.97,7.2-2.85,9.77c-0.32,0.44-0.04,1.28,0.47,1.48
				c2.92,1.17,6.29,3.06,7.13,6.16c0.63,2.34,1.28,4.7,1.92,7.06c4.5,16.45,9.19,32.78,8.86,38.23c-0.28,4.63-4.89,1.08-3.14,6.85
				l24.55-10.88c-0.77-4.35-4.88-1.05-6.34-2.73c-1.2-1.38-2.26-4.99-5.39-17.1c-1.86-7.18-6.02-20.08-7.63-27.7
				C131.23,346.29,130.79,346.54,132.46,345.9z"/>
		</defs>
		<clipPath id="SVGID_15_">
			<use xlink:href="#SVGID_14_"  style="overflow:visible;"/>
		</clipPath>
		<path class="st15" d="M423.3,300.27c-190.32,0-363.42,73.61-492.48,193.87l2.06,0.41l43.28,3.75l23.05,3.32l27.26,2.27l13.22,1.68
			l10.4,1.86l8.97,0.69h10.29c9.7,0,20.72-0.1,30.37,0.34l36.78,2.45l24.72,0.34l13.41,1.02l11.45,1.43l19.86,0.34l75.91,5.25
			l24.72,0.34l13.41,1.02c2.94,0.3,9.81,1.43,12.13,1.43h137.84l11.27-1.43l13.41-1.02l13.59-0.34h315.89l13.59,0.34l13.41,1.02
			c3.16,0.32,9.47,1.4,12.13,1.43l13.59,0.34l13.41,1.02l11.27,1.43h45.37C815.27,386.52,629.36,300.27,423.3,300.27z M910.4,500.08
			l-25.64-0.34l-11.27-1.43l-13.41-1.02l-13.59-0.34H776.6c-2.32,0-9.19-1.13-12.13-1.43l-13.41-1.02l-22.84-0.34l-11.27-1.43
			l-14.74-1.12l-19.57-2.8c-7.37-1.13-19.19-2.32-26.63-2.7c-5.16-0.26-12.88-2.1-18.09-2.89c-7.37-1.12-19.2-2.32-26.63-2.7
			l-22.84-0.34l-11.27-1.43l-13.41-1.02l-13.59-0.34h-81.93l-11.27-1.43l-13.41-1.02l-17.25-0.34l-11.27-1.43l-13.41-1.02
			l-19.18-0.34h-79.13l-11.27-1.43l-13.41-1.02l-59.18-0.34l-11.27-1.43l-13.41-1.02l-42.22-0.34l-11.45-1.43l-13.41-1.02
			l-13.59-0.34H-3.34l-13.59,0.34c-2.35,0.12-5.14,0.32-8.09,0.58c123.69-99.96,271.07-159.85,452.51-159.85
			s365.45,74.7,494.49,196.51C917.78,500.57,913.67,500.24,910.4,500.08z"/>
		
			<radialGradient id="SVGID_16_" cx="428.9677" cy="459.8526" r="477.4597" fx="430.7235" fy="460.0143" gradientTransform="matrix(1 0 0 0.4551 0 250.5755)" gradientUnits="userSpaceOnUse">
			<stop  offset="0.3084" style="stop-color:#854885"/>
			<stop  offset="0.5316" style="stop-color:#834784"/>
			<stop  offset="0.6488" style="stop-color:#7C437F"/>
			<stop  offset="0.7414" style="stop-color:#713B78"/>
			<stop  offset="0.821" style="stop-color:#62316D"/>
			<stop  offset="0.8917" style="stop-color:#502460"/>
			<stop  offset="0.9302" style="stop-color:#441B58"/>
		</radialGradient>
		<path class="st16" d="M421.2,239.99c-230.85,0-437.93,101.62-579.05,262.54h70.64l13.59,0.34l78.27,5.59l58.14,3.82l20.74,2.3
			l109.88,6.34c-5.42-0.58-11.04-1.06-15.44-1.28c-5.57-0.28-12.52-2-18.09-2.89l-19.57-2.8c-5.06-0.68-9.95-2.25-14.95-3.27
			l-15.18-2.64c-7.85-2.02-17.77-3.98-25.79-5.27l-26.85-5.39l-11.66-3.31c-7.41-1.91-18.22-4.12-25.79-5.27l-12.06-1.95l-4.09-1.16
			c-7.41-1.91-18.23-4.12-25.79-5.27c-7.59-1.16-18.96-2.31-26.63-2.7l-7.48-0.52C71.81,364.49,239.55,296.07,423.3,296.07
			c208.4,0,396.23,88,528.43,228.82h-18.58c-2.82,0-8.88-1.1-12.13-1.43l-13.41-1.02l-11.18-0.28l-11.75-1.49l-21.1-1.21
			l-12.44-1.58l-17.61-1.13l-13.14-1.67l-13.41-1.02l-13.59-0.34c-3.15-0.04-8.66-1.08-12.13-1.43l-13.41-1.02l-13.59-0.34h-61.9
			l11.95,1.99l54.59,4.96c8.79,0.96,17.55,2.3,26.23,4l31.03,6.65l17.47,2.21l13.01,2.32l46.46,4.38l15.51,2.06l20.91,2.17
			l20.05,0.34l8.77,0.67l8.77-0.67l44.34-0.34l21.48,0.73C892.21,358.58,670.57,239.99,421.2,239.99z"/>
		<path class="st17" d="M423.56,206.36c-190.32,0-423.83,82.81-552.89,203.07l62.19,30.9l43.28,3.75l23.05,3.32l27.26,2.27
			l13.22,1.68l10.4,1.86l8.97,0.69h10.29c9.7,0,20.72-0.1,30.37,0.34l36.78,2.45l24.72,0.34l13.41,1.02l11.45,1.43l19.86,0.34
			l75.91,5.25l24.72,0.34l13.41,1.02c2.94,0.3,9.81,1.43,12.13,1.43h137.84l11.27-1.43l13.41-1.02l13.59-0.34h315.89l13.59,0.34
			l13.41,1.02c3.16,0.32,9.47,1.4,12.13,1.43l13.59,0.34l13.41,1.02l11.27,1.43h45.37C890.85,324.38,629.62,206.36,423.56,206.36z
			 M910.4,445.86l-25.64-0.34l-11.27-1.43l-13.41-1.02l-13.59-0.34H776.6c-2.32,0-9.19-1.13-12.13-1.43l-13.41-1.02l-22.84-0.34
			l-11.27-1.43l-14.74-1.12l-19.57-2.8c-7.37-1.13-19.19-2.32-26.63-2.7c-5.16-0.26-12.88-2.1-18.09-2.89
			c-7.37-1.12-19.2-2.32-26.63-2.7l-22.84-0.34l-11.27-1.43l-13.41-1.02l-13.59-0.34h-81.93l-11.27-1.43l-13.41-1.02l-17.25-0.34
			l-11.27-1.43l-13.41-1.02l-19.18-0.34h-79.13l-11.27-1.43l-13.41-1.02l-59.18-0.34l-11.27-1.43l-13.41-1.02l-42.22-0.34
			l-11.45-1.43l-13.41-1.02l-13.59-0.34H-3.34l-13.59,0.34c-2.35,0.12-5.14,0.32-8.09,0.58
			c123.69-99.95,271.07-159.85,452.51-159.85s365.45,74.7,494.49,196.51C917.78,446.35,913.67,446.02,910.4,445.86z"/>
	</g>
	<g>
		<g>
			<linearGradient id="SVGID_17_" gradientUnits="userSpaceOnUse" x1="405.5826" y1="243.9573" x2="405.5826" y2="341.3802">
				<stop  offset="2.700000e-07" style="stop-color:#471D59"/>
				<stop  offset="0.6444" style="stop-color:#711B50"/>
				<stop  offset="1" style="stop-color:#88194A"/>
			</linearGradient>
			<path class="st18" d="M405.83,292.16c-1.4,0.42-2.32-0.4-2.86-2.21c-0.87-2.94-1.93-11.4-3.03-20.26
				c-1.39-11.2-2.91-23.26-3.32-23.4l-18.28,1.01c0.23,0.31,0.53,0.38,0.82,0.46c1.93,0.51,3.87,1.03,4.06,5.89l0.32,8.59
				c0.1,2.79,0.21,5.51,0.3,8.16c0.07,1.82-0.55,3.66-1.5,5.34c-0.9,1.58-2.12,3.04-3.35,4.22c1.16,0.88,2.3,1.91,3.25,3.09
				c1.28,1.59,2.17,3.43,2.23,5.53c0.28,8.49,0.5,16.5,0.67,24.45c0.17,7.89,0.27,15.7,0.32,23.82l0,0.78l-0.55,0.55
				c-0.59,0.59-1.2,0.89-1.82,1.11c2.28-0.12,5.32-0.28,8.56-0.43c-0.62-0.43-1.05-1.1-1.14-2.27c-0.34-4.41-0.86-14.04-1.32-24.09
				c-0.43-9.37-0.81-19.09-0.94-25.21c-0.06-2.67,0.67-3.89,2.03-3.92c2.98-0.06,10.82,46.82,11.74,52.34l0.01,0.09
				c0.22,0.27,0.41,0.44,0.57,0.51c0.02,0.01,0.03,0.01,0.04,0c0.16-0.07,0.34-0.25,0.53-0.51c0.52-0.73,0.91-1.85,1.04-3.09
				l0.01-0.13c3.25-18.39,5.2-32.19,6.33-40.26l0.23-1.64c0.45-3.21,0.9-5.39,1.28-6.41c0.4-1.06,1.04-1.64,1.91-1.73
				c1.17-0.11,1.94,0.52,2.25,1.92c0.21,0.91,0.31,2.82,0.27,5.78c-0.02,1.83-0.06,4.05-0.11,6.71c-0.13,7.94-0.33,19.82-0.42,36.07
				v0.03c-0.08,3.21-0.92,4.46-1.99,5.04l14.66-0.05c-0.91-0.79-1.59-2.11-1.65-4.63c-0.18-7.52-0.32-15.05-0.39-22.64
				c-0.08-7.56-0.1-15.17-0.05-22.87c0.01-1.51,0.79-3.04,1.88-4.42c1.08-1.36,2.48-2.63,3.65-3.54c-1.37-1.31-2.69-2.93-3.66-4.67
				c-1.03-1.86-1.69-3.89-1.65-5.91c0.05-2.67,0.1-5.32,0.16-7.95c0.06-2.7,0.13-5.35,0.21-7.96c0.15-5.2,2.19-5.66,4.32-6.14
				c0.58-0.13,1.18-0.27,1.53-1.44c-2.57-0.17-6.82-0.07-10.92,0.02c-2.39,0.05-4.73,0.11-6.72,0.1c-0.35,0-0.59-0.02-0.81-0.03
				c-0.42-0.03-0.79-0.05-0.95,1.11c-0.3,2.3-0.74,6.17-1.24,10.59c-1.54,13.56-3.64,32.14-6.57,34.32L405.83,292.16L405.83,292.16z
				 M381.36,253.72c0.22,5.89,0.43,11.44,0.62,16.75c0.12,3.24-2.61,6.77-5.03,8.83c-0.41,0.35-0.34,1.23,0.11,1.55
				c2.63,1.86,5.44,4.5,5.55,7.78c0.55,17.04,0.9,32.02,0.99,48.22c-1.53,1.52-4.43,0.25-4.48,4.52c0.31-0.02,9.17-0.54,17.48-0.88
				c0.14-3.48-4.05-1.9-4.22-4.05c-0.67-8.67-1.99-36.71-2.26-49.2c-0.31-14.01,10.15,49.22,10.17,49.27
				c2.56,3.77,5.37,0.47,5.8-3.62c3.47-19.63,5.47-34.15,6.57-41.96c1.16-8.16,2.13-9,2.02-0.71c-0.09,7.12-0.41,21.01-0.52,42.8
				c-0.15,6.5-4.21,1.28-4.18,6.95l23.49-0.09c0.11-3.89-4.44-0.73-4.58-6.51c-0.37-15.06-0.53-30.08-0.45-45.45
				c0.01-2.52,3.6-5.67,5.59-7.08c0.45-0.32,0.52-1.2,0.11-1.55c-2.77-2.36-5.55-6.24-5.48-9.89c0.1-5.3,0.22-10.59,0.37-15.89
				c0.22-7.64,5.58-1,6.11-9.23c-3.08-0.68-13.42-0.12-19.76-0.12c-1.59,0-3.16-0.69-3.6,2.7c-1.36,10.33-4.52,43.67-6.46,43.51
				c-1.85,0.55-5.48-45.76-7.84-45.77l-21.42,0.94C376.33,252.3,381.1,246.8,381.36,253.72z"/>
		</g>
		<g>
			<linearGradient id="SVGID_18_" gradientUnits="userSpaceOnUse" x1="227.8707" y1="269.9478" x2="227.8707" y2="371.5878">
				<stop  offset="2.700000e-07" style="stop-color:#471D59"/>
				<stop  offset="0.6444" style="stop-color:#711B50"/>
				<stop  offset="1" style="stop-color:#88194A"/>
			</linearGradient>
			<path class="st19" d="M231.64,291.11c0.79,4.48,1.03,7.92,0.1,10.63c-1.02,2.99-3.25,4.92-7.36,6.07l-0.32,0.09l-0.35-0.03
				c-1.91-0.18-3.31-7.51-4.77-15.12l-0.07-0.37c-0.7-3.67-1.41-7.39-1.89-10.28c-0.63-3.81-0.51-6.45,1.04-6.79
				c4.34-1.17,7.24-0.43,9.44,2.57C229.36,280.45,230.52,284.75,231.64,291.11L231.64,291.11z M223.88,306.03
				c-0.52-0.05-1.83-6.95-3.18-14c-0.93-4.87-1.87-9.82-2.25-12.61c-0.49-0.3-0.71-0.47-0.13-0.44l0.08,0
				c-0.14-1.17-0.16-1.87,0.01-1.86c7.11-1.96,9.26,2.13,11.4,14.31C231.28,299.81,230.76,304.1,223.88,306.03L223.88,306.03z
				 M256.07,336.06c1.61,1.54,3.1,10.05,1.37,16.88c-1.38,5.44-5.11,9.83-10.36,8.78c-11.6-2.31-13.59-51.44-21.88-49.53
				c-2.25,1.68,1.9,18.87,2.29,21.11c3.93,22.27,5.3,27.75,6.61,29.08c1.15,1.17,4.71-2.22,5.01,2.47l-22.85,6.73
				c-2.52-4.09,2.85-3.53,3.2-5.85c0.21-1.41,0.05-2.46-0.38-5.57c-0.54-3.88-1.51-8.41-2.2-12.19l-5.3-28.47
				c-0.61-3.28-4.27-5.98-7.11-7.57c-0.48-0.27-0.64-1.14-0.27-1.53c2.17-2.28,4.55-6.06,3.96-9.22l-0.59-3.15
				c-2.05-9.79-3.35-14.12-4.45-16.1c-1.65-2.96-4.5,1.62-5.6-4.02c4.85-1.47,15.6-4.9,20.95-6.41c9.74-2.76,15.57-2.38,20.28,5.74
				c10.46,28.95-0.28,31.71-5.27,33.05c16.36,5.32,14.13,26.45,19.67,36.59C256.42,350.92,254.27,336.17,256.07,336.06
				L256.07,336.06z M209.2,306.29c-0.72,1.67-1.79,3.26-2.89,4.56c1.51,0.92,3.14,2.11,4.46,3.51c1.31,1.39,2.31,3.01,2.65,4.81
				l5.3,28.47v0.01c0.15,0.84,0.43,2.28,0.72,3.75c0.55,2.83,1.12,5.8,1.5,8.52l0.06,0.44c0.41,2.97,0.57,4.06,0.32,5.66
				c-0.22,1.45-1.09,2.18-2.09,2.77l14.76-4.35c-0.41-0.12-0.81-0.34-1.2-0.74c-0.89-0.91-1.72-2.86-2.81-7.58
				c-1.01-4.39-2.35-11.35-4.31-22.48v-0.01c-0.06-0.33-0.21-1.04-0.41-1.99c-1.19-5.57-4.01-18.8-1.16-20.93l0.31-0.23l0.39-0.09
				c5.69-1.31,8.41,9.96,11.41,22.43c2.98,12.39,6.28,26.1,11.25,27.09c1.85,0.37,3.45-0.16,4.73-1.25
				c1.63-1.38,2.81-3.62,3.46-6.15v-0.01c0.38-1.48,0.59-3.05,0.67-4.6c-0.19,0.44-0.43,0.79-0.74,1.04
				c-1.19,0.96-2.47,0.83-3.85-0.88l-0.1-0.12l-0.09-0.16c-1.88-3.44-2.88-7.87-3.94-12.56c-2.12-9.36-4.49-19.84-14.67-23.15
				l-5.98-1.94l6.07-1.62l0.06-0.02c0.64-0.17,1.38-0.37,2.08-0.62h0.01c4.51-1.63,10.29-6.53,1.92-29.81
				c-2.05-3.49-4.28-5.31-6.99-5.95c-2.91-0.68-6.52-0.11-11.1,1.19c-3.5,0.99-9.44,2.84-14.45,4.4c-1.5,0.47-2.92,0.91-4.35,1.35
				c0.07,0,0.15,0,0.22-0.01c1.52-0.17,3.05-0.34,4.35,2c0.62,1.12,1.28,2.82,2.04,5.52c0.73,2.58,1.57,6.15,2.61,11.1l0.01,0.04
				l0.59,3.15C210.34,302.65,209.96,304.53,209.2,306.29z"/>
		</g>
		<g>
			<linearGradient id="SVGID_19_" gradientUnits="userSpaceOnUse" x1="659.0037" y1="278.16" x2="659.0037" y2="379.2397">
				<stop  offset="2.700000e-07" style="stop-color:#471D59"/>
				<stop  offset="0.6444" style="stop-color:#711B50"/>
				<stop  offset="1" style="stop-color:#88194A"/>
			</linearGradient>
			<path class="st20" d="M645.22,372.9c1.71-4.75,9.38-37.62,14.89-61.23c2.87-12.3,5.16-22.08,5.74-24.2l0.54-1.95l1.9,0.71
				c9.44,3.53,8.34,11.35,6.55,24.07c-0.24,1.71-0.49,3.51-0.69,5.01c-0.97,7.48-2.26,14.89-3.98,22.41
				c-1.73,7.55-3.9,15.22-6.62,23.21c-1.6,4.68-2.98,8.68-5.36,11.4c-2.1,2.41-4.8,3.71-8.72,3.45c0.17,0.06,0.34,0.11,0.49,0.17
				c14.66,5.15,21.56-4.83,26.02-17.53c1.75-4.99,3.14-10.37,4.45-15.48l0.67-2.61c0.22-0.84,0.43-1.69,0.64-2.54
				c0.2-0.84,0.4-1.68,0.6-2.55c0.4-1.78,1.4-3.26,2.69-4.47c1.18-1.1,2.61-1.99,4.04-2.68c-1.08-1.53-1.85-3.22-2.61-4.91
				c-0.42-0.92-0.84-1.85-1.3-2.7l0,0l0-0.01l-0.27-0.49l0.05-0.57c0.47-5.15,0.49-10.05-0.06-14.5c-0.5-4.03-1.47-7.66-3.01-10.75
				c-1.86-3.12-6.55-5.9-11.86-8.15c-7.59-3.21-16.23-5.27-20.21-5.82c0.37,0.64,1.08,1.18,1.76,1.7c1.99,1.52,3.91,2.99,3.09,6.14
				c-0.58,2.82-1.13,5.45-1.63,7.81c-0.61,2.9-1.17,5.55-1.67,7.88c-0.47,2.19-1.48,4.04-2.89,5.59c-1.27,1.4-2.84,2.54-4.6,3.45
				c1.03,1.38,2.06,3.04,2.73,4.79c0.67,1.74,0.97,3.56,0.58,5.32c-1.9,8.58-3.82,16.99-5.64,24.57c-1.66,6.95-3.2,13.1-4.51,17.91
				l0,0c-1.28,5.06-3.67,5.29-6.04,5c3.16,1.09,7.61,2.33,11.49,3.41c0.76,0.21,1.5,0.42,2.21,0.62L645.22,372.9L645.22,372.9z
				 M667.65,287.96c9.12,3.41,6.58,12.3,4.66,27.1c-1.91,14.8-5.11,29.39-10.52,45.26c-3.06,8.99-5.31,15.33-14.82,13.19
				C649.64,366.08,666.03,293.8,667.65,287.96L667.65,287.96z M652.83,287.61c1.15-4.21-6.46-4.45-5.02-9.45
				c3.5-0.22,30.22,5.66,35.72,15.13c3.41,6.84,4.19,16.08,3.26,26.27l0,0.01c1.47,2.74,2.45,5.85,4.41,8.23
				c0.37,0.45,0.2,1.29-0.28,1.49c-2.9,1.19-6.06,3.25-6.76,6.35c-0.39,1.72-0.81,3.43-1.25,5.14c-5.1,19.62-10.5,45.01-33.55,36.91
				c-4.41-1.55-18.97-4.99-22.74-7.18c1.51-5.61,6.71,1.94,8.63-5.67c2.85-10.46,6.52-26.08,10.13-42.39
				c0.7-3.17-1.63-6.93-3.61-9.39c-0.34-0.43-0.17-1.3,0.32-1.52c3.7-1.68,6.61-4.31,7.44-8.23
				C650.68,297.91,651.79,292.62,652.83,287.61z"/>
		</g>
		<g>
			<linearGradient id="SVGID_20_" gradientUnits="userSpaceOnUse" x1="178.0383" y1="281.0789" x2="178.0383" y2="388.3975">
				<stop  offset="2.700000e-07" style="stop-color:#471D59"/>
				<stop  offset="0.6444" style="stop-color:#711B50"/>
				<stop  offset="1" style="stop-color:#88194A"/>
			</linearGradient>
			<path class="st21" d="M149.47,296.49c0.27,0.3,0.56,0.24,0.84,0.18c1.35-0.3,2.65-0.59,3.94,0.87c2.61,2.96,4.2,10.38,5.15,14.8
				c0.16,0.72,0.29,1.37,0.39,1.8c0.04,0.17,0.17,0.71,0.36,1.54l0.41,1.72c0.46,1.88,0.22,3.83-0.42,5.66
				c-0.6,1.71-1.57,3.35-2.64,4.74c1.56,0.87,3.29,2.03,4.7,3.39c1.42,1.36,2.54,2.95,2.98,4.7c2.24,8.95,4.65,18.78,6.45,27.19
				c1.82,8.51,3.01,15.59,2.77,18.9l-0.06,0.85l-0.7,0.51c-0.88,0.64-1.59,1.07-2.21,1.43c-0.66,0.39-1.1,0.66-1.15,1.21
				l37.86-13.75l0.07-0.02c1.16-0.38-1.63-1.19-2.82-5.21c-0.58-1.97-1.3-4.37-1.98-6.76c-0.4-1.41-0.75-2.66-1.06-3.76
				c0,0.06,0,0.13,0,0.19c0,2.54,0.01,5.04-0.15,6.45c-0.52,4.7-1.57,7.58-4.09,9.9c-2.37,2.18-5.9,3.63-11.52,5.59l-1.95,0.68
				l-0.47-2.01l-11.13-47.84l-0.37-1.61l1.55-0.56c2.83-1.03,5.31-1.92,7.39-2.66c2.41-0.86,4.53-1.6,6.32-2.22
				c1.51-0.52,2.86-0.26,4.09,0.45c1,0.57,1.88,1.45,2.69,2.39c0.56,0.64,0.99,1.31,1.41,1.95c0.02,0.03,0.03,0.05,0.05,0.08
				c-0.15-0.66-0.33-1.45-0.55-2.39c-0.33-1.45-0.76-3.29-1.45-6.39c-0.78-3.5-1.1-4.98-1.35-6.14c-0.77-3.57,1.53-4.36,0.46-4.14
				c-0.69,0.28-0.71,0.77-0.75,1.99c-0.02,0.67-0.05,1.45-0.11,2.21c-0.22,2.76-3.49,5.18-7.55,7.19c-3.65,1.8-7.92,3.34-10.89,4.4
				l-1.99,0.71l-0.46-2.07c-0.82-3.73-2.8-13.01-4.2-20.11c-0.9-4.58-1.57-8.32-1.55-9.26l0.03-1.09l0.96-0.51
				c10.03-5.33,15.8,0.78,22.13,7.48c0.41,0.43,0.82,0.87,1.24,1.31c-0.27-1.43-0.68-3.39-1.23-6.05c-0.1-0.49-0.26-1.26-0.69-3.32
				c-0.17-0.82-0.34-1.73-0.51-2.65c-0.33-1.75-0.66-3.56-1.02-4.84c-0.06-0.21,1.86-0.89,1.2-0.72l-38.15,13.54L149.47,296.49
				L149.47,296.49z M172.55,381.84c-3.43,2.5-5.61,2.18-3.47,6.56l39.69-14.41c0.76-0.25-0.61-3.89-3.58-14.25
				c-3.14-10.94-2.75-11.39-4.15-11.02c-0.93,0.2-0.32,10.77-0.7,14.21c-0.93,8.45-3.61,10.19-14.37,13.93l-11.13-47.84
				c5.24-1.9,9.86-3.54,13.67-4.86c1.86-0.64,3.39,0.69,4.78,2.29c1.71,1.97,2.42,4.8,4.83,4c0.87-0.1,0.36-1.1-2.15-12.37
				c-2.51-11.27-2.4-11.85-3.16-11.68c-2.59,0.86-1.94,1.96-2.25,5.87c-0.31,3.91-11.32,7.87-17.21,9.98
				c-1.34-6.09-5.76-26.92-5.71-28.94c10.66-5.67,16.2,3.84,23.74,11.05c1.64-0.09,1.25-1.11-1.35-13.65
				c-0.8-3.87-1.62-9.92-2.74-9.61l-38.18,13.55l-1.99,0.71c1.11,5.95,4.21,1.67,5.75,3.41c2.66,3.01,4.29,12.17,5.12,15.79
				c0.22,0.98,0.49,2.08,0.78,3.29c0.8,3.32-1.14,7.05-3.37,9.6c-0.35,0.41-0.15,1.27,0.34,1.52c2.87,1.44,6.86,4.19,7.65,7.38
				C167.86,354.24,173.01,375.61,172.55,381.84L172.55,381.84z M201.35,351.85c0.08-1.25,0.69-1.48,0.15-1.34l-0.07,0.02
				C201.07,350.61,201.14,351.1,201.35,351.85z"/>
		</g>
		<g>
			<linearGradient id="SVGID_21_" gradientUnits="userSpaceOnUse" x1="460.7405" y1="244.372" x2="460.7405" y2="341.4122">
				<stop  offset="2.700000e-07" style="stop-color:#471D59"/>
				<stop  offset="0.6444" style="stop-color:#711B50"/>
				<stop  offset="1" style="stop-color:#88194A"/>
			</linearGradient>
			<path class="st22" d="M461.38,247.72c3.42,0.1,5.44,0.44,6.89,1.74c1.47,1.31,1.96,3.22,2.3,6.44l0,0
				c3.13,20.9-1.35,24.95-5.46,25.57c-1.12,0.17-2.12,0.05-2.95-0.04c-0.38-0.04-0.71-0.08-0.81-0.07l-2.03,0.19l0.01-2.05
				l0.15-29.94l0.01-1.91L461.38,247.72L461.38,247.72z M461.33,249.57c5.92,0.18,6.82,1.01,7.4,6.6
				c4.19,27.93-5.01,23.11-7.55,23.34L461.33,249.57L461.33,249.57z M445.33,252.84c-0.76-5.27-5.7-3.96-4.75-8.47
				c6.95,0.18,13.46,0.41,19.99,0.7c12.19,0.53,22.17,2.42,21.78,23.06c-0.26,13.95-7.2,18.04-21.46,17.24
				c0.1,18.33-0.44,42.89,0.17,50.73c0.23,2.95,5.32,1.08,5.32,5.31c-3.9-0.22-23.15-1.08-27.26-1.19c-0.15-5.39,5.07-1.13,5.1-7.1
				c0.06-14.71,0.3-29.64,0.55-44.66c0.06-3.69-2.29-6.52-5.13-8.9c-0.42-0.35-0.42-1.24,0.02-1.55c2.79-2,5.37-5.13,5.57-8.57
				C445.57,263.45,445.31,258.37,445.33,252.84L445.33,252.84z M445.2,274.94c-0.96,1.48-2.22,2.81-3.56,3.9
				c1.23,1.11,2.35,2.33,3.22,3.69c1.12,1.76,1.8,3.72,1.77,5.97c-0.13,7.52-0.25,15.02-0.35,22.44c-0.1,7.45-0.17,14.86-0.21,22.2
				c-0.02,3.91-1.6,4.83-3.33,5.36c2.46,0.1,5.68,0.23,8.97,0.38c3.31,0.15,6.69,0.3,9.44,0.43c-1.03-0.52-1.81-1.33-1.94-3.05
				c-0.39-5-0.31-16.82-0.23-29.5c0.05-7.21,0.1-14.7,0.06-21.36l-0.01-1.97l1.97,0.11c6.7,0.37,11.6-0.35,14.76-2.72
				c3.06-2.3,4.62-6.35,4.74-12.7c0.18-9.64-1.95-14.81-5.47-17.58c-3.56-2.79-8.77-3.35-14.54-3.6c-3.32-0.14-6.58-0.27-9.82-0.39
				c-2.61-0.09-5.23-0.17-7.88-0.25c0.2,0.21,0.45,0.4,0.72,0.6c1.48,1.09,3.18,2.35,3.67,5.69l0.02,0.11l0,0.16
				c-0.01,1.77,0.01,3.51,0.03,5.24c0.05,3.69,0.09,7.37-0.15,11.45C446.97,271.48,446.25,273.3,445.2,274.94z"/>
		</g>
		<g>
			<linearGradient id="SVGID_22_" gradientUnits="userSpaceOnUse" x1="609.7985" y1="262.6292" x2="609.7985" y2="366.6167">
				<stop  offset="2.700000e-07" style="stop-color:#471D59"/>
				<stop  offset="0.6444" style="stop-color:#711B50"/>
				<stop  offset="1" style="stop-color:#88194A"/>
			</linearGradient>
			<path class="st23" d="M580.66,357.04c0.8,0.12,2.4-0.14,4.73,0.42c2.45,0.58,5.21,1.24,7.62,1.83c-0.21-0.27-0.47-0.51-0.73-0.74
				c-1.53-1.41-3.01-2.78-2.03-5.98c0.78-2.54,2.18-11.49,3.65-20.89c1.49-9.52,3.06-19.5,4.17-24.07c0.68-2.77,1.71-4.22,3.23-3.85
				h0.01c1.84,0.45,3.67,8.43,5.23,18.19c1.46,9.1,2.92,19.92,3.85,27.03c1.07,8.11,2.35,12.93,3.62,15.1
				c0.08,0.14,0.16,0.26,0.22,0.36c0.34-0.54,0.68-1.45,1.01-2.7c0.96-3.68,3.49-14.98,6.43-28.16c1.3-5.81,2.67-11.97,3.7-16.53
				c0.41-1.83,1.51-3.43,2.92-4.8c1.43-1.39,3.19-2.54,4.82-3.43c-1.1-1.43-2.14-3.2-2.81-5.04c-0.71-1.94-1.01-3.97-0.57-5.84
				c0.38-1.65,0.88-3.73,1.49-6.3c0.52-2.2,0.97-4.03,1.32-5.42c1.71-6.85,3.85-8.69,5.48-9.68c-2.07-0.59-4.65-1.32-7.26-2.05
				c-2.13-0.6-4.26-1.19-6.12-1.71c3.02,1.7,6.64,4.87,3.28,19.9l0,0c-1.11,6.25-1.61,8.23-2.41,11.35
				c-0.46,1.8-1.01,3.98-1.77,7.28l-1.53,6.67l-2.06-6.53c-1.44-4.56-3.54-14.52-5.44-23.46c-1.43-6.76-2.74-12.93-3.52-15.66
				l-0.03-0.14c-0.77-3.76-4.36-4.48-12.05-6.03c-1.13-0.23-2.34-0.47-3.61-0.73c0.02,0.01,0.05,0.02,0.07,0.03
				c0.66,0.24,1.36,0.49,2.07,0.83c3.13,1.48,2.29,7.05,1.38,13.09c-0.2,1.32-0.4,2.66-0.52,3.56v0.02l-0.49,3.36v0.01l-0.5,3.42
				c-0.27,1.81-1.19,3.45-2.44,4.86c-1.16,1.31-2.6,2.42-4.03,3.28c1.07,1.28,2.02,2.67,2.72,4.17c0.89,1.93,1.31,4.01,0.96,6.23
				c-1.77,11.07-4.03,21.91-6.29,32.79c-0.74,3.57-1.49,7.14-2.12,10.27c-0.91,4.46-2.66,4.54-4.51,4.63
				C581.43,356.02,581.05,356.04,580.66,357.04L580.66,357.04z M595.18,361.75c1.35-4.74-4.45-4.37-3.15-8.64
				c1.92-6.28,7.18-47.95,8.85-47.54c1.85,0.46,5.83,29.47,7.69,43.66c2.5,18.99,6.4,20.92,8.49,12.99
				c1.35-5.16,5.79-25.39,10.14-44.75c0.75-3.34,4.7-5.96,7.7-7.47c0.49-0.25,0.69-1.11,0.34-1.52c-2.2-2.53-4.45-6.79-3.68-10.1
				c1.03-4.44,1.99-8.44,2.8-11.7c2.79-11.19,6.45-7.26,6.72-11.18c-4.96-1.45-15.48-4.39-19.73-5.54
				c-2.35,7.42,10.03-1.06,4.75,22.42c-1.71,9.67-1.96,8.99-4.16,18.54c-2.49-7.91-7.11-32.67-8.94-39.08
				c-1.3-6.34-7.4-5.89-21.63-9.21c-0.48,4.01,2.51,3.95,5.5,5.36c2.3,1.08,0.67,8.21-0.19,14.73c-0.32,2.22-0.65,4.49-0.99,6.79
				c-0.47,3.19-3.66,5.85-6.47,7.32c-0.48,0.25-0.6,1.13-0.24,1.54c2.47,2.75,4.5,6.02,3.92,9.67c-2.31,14.45-5.49,28.64-8.4,42.98
				c-1.26,6.22-4.31-0.05-5.96,6.69C578.59,357.8,590.32,360.5,595.18,361.75z"/>
		</g>
		<g>
			<linearGradient id="SVGID_23_" gradientUnits="userSpaceOnUse" x1="309.1718" y1="252.5205" x2="309.1718" y2="353.1104">
				<stop  offset="2.700000e-07" style="stop-color:#471D59"/>
				<stop  offset="0.6444" style="stop-color:#711B50"/>
				<stop  offset="1" style="stop-color:#88194A"/>
			</linearGradient>
			<path class="st24" d="M291.13,350.76c1.53-0.29,3.13-0.59,4.82-0.91c1.61-0.3,3.27-0.6,4.98-0.91c-0.69-0.28-1.38-0.58-2.03-1.34
				l-0.44-0.53l0.01-0.69c0.03-2.81-0.01-8.74-0.05-15.69c-0.08-12.68-0.18-28.73,0.06-35.36c0.22-5.99,4-1.61,4.01-1.6l0.29,0.33
				l0.11,0.43c2.49,9.31,6.07,26.46,8.6,38.62c0.61,2.91,1.15,5.53,1.71,8.13l0.03,0.14l0.01,0.18c0.13,3.02-1.34,3.76-3,4.6
				c-0.59,0.3-1.23,0.62-1.57,1.57c2.73-0.48,5.71-0.98,8.65-1.45c3.98-0.63,7.85-1.21,10.92-1.65c-0.07-0.05-0.15-0.09-0.22-0.11
				c-0.07-0.01-0.22-0.03-0.37-0.05c-1.39-0.16-2.69-0.3-3.94-3.06c-1.66-3.65-3.56-10.32-5.53-18.48
				c-1.94-8.04-3.96-17.59-5.88-27.11c-0.34-1.7,0.03-3.46,0.76-5.13c0.74-1.68,1.84-3.27,2.89-4.57c-1.57-0.9-3.17-2.11-4.46-3.52
				c-1.38-1.5-2.43-3.25-2.8-5.16c-0.62-3.2-1.28-6.91-1.9-10.33c-0.57-3.16-1.09-6.07-1.65-8.85c-0.44-2.18,0.55-2.79,1.83-3.4
				l-15.73,2.57c0.23,0.02,0.47,0.03,0.68,0.03c1.96,0.05,3.54,0.1,3.74,2.45c0.21,2.52,0.35,5.69,0.45,9.18
				c0.09,3.39,0.14,7.08,0.16,10.81c0.01,1.98-0.62,3.95-1.62,5.75c-0.93,1.67-2.18,3.21-3.51,4.48c1.3,0.98,2.44,2,3.32,3.2
				c1.16,1.57,1.84,3.37,1.82,5.63c-0.08,13.36-0.36,26.71-0.88,36.1c-0.41,7.24-1.21,12.43-2.54,14.15l0.1,0.11
				c-0.19,0.19-0.31,0.25-0.49,0.36C292.24,349.79,291.61,350.14,291.13,350.76L291.13,350.76z M301.09,294.97
				c3.13,11.68,7.95,35.69,10.28,46.65c0.17,4.19-5.15,1.34-4.8,8.37c7.56-1.41,18.08-3,24.01-3.82c0.23-1.53-0.79-3.21-2.24-3.48
				c-1.04-0.19-1.98,0.1-2.95-2.05c-3.22-7.1-7.46-26.24-11.28-45.19c-0.61-3.03,1.95-6.67,3.91-8.92c0.36-0.41,0.22-1.29-0.26-1.53
				c-3.07-1.54-6.6-4.5-7.25-7.9c-1.37-7.07-2.57-14.33-3.55-19.2c-0.44-2.22,3.62-0.55,2.79-5.37l-22.01,3.59
				c0.28,4.97,5.9,2.12,6.06,3.95c0.43,5.13,0.56,12.46,0.61,19.84c0.03,3.58-2.59,7.25-5.32,9.57c-0.41,0.35-0.34,1.23,0.11,1.55
				c3.03,2.14,5.24,4.29,5.22,7.93c-0.15,24.31-0.94,48.69-2.75,49.03c-0.1,0.1-3.46,1.59-2.9,5.13c5.13-0.99,9.98-1.9,14.9-2.78
				c0.11-3.41-2.22-2.63-3.33-3.94c0.08-7.94-0.37-40.73,0.01-51C300.37,294.13,301.09,294.97,301.09,294.97z"/>
		</g>
		<g>
			<linearGradient id="SVGID_24_" gradientUnits="userSpaceOnUse" x1="268.0041" y1="258.5281" x2="268.0041" y2="358.3631">
				<stop  offset="2.700000e-07" style="stop-color:#471D59"/>
				<stop  offset="0.6444" style="stop-color:#711B50"/>
				<stop  offset="1" style="stop-color:#88194A"/>
			</linearGradient>
			<path class="st25" d="M251.66,265.22c0.41,0.24,0.95,0.23,1.48,0.22c1.17-0.03,2.35-0.06,3.52,0.58l0.67,0.36l0.23,0.74
				c0.91,2.98,4.65,25.62,7.72,46.54c2.33,15.88,4.28,30.85,4.34,35.65h0c0.15,4.23-1.49,5.61-3.14,6.53l15.5-3.12
				c-0.79-0.27-1.51-0.87-2.03-2.09c-0.43-1-0.85-2.55-1.31-5.01c-0.44-2.33-0.92-5.55-1.5-10.01c-0.96-7.37-2.43-19.14-3.89-31.01
				c-1.95-15.86-3.97-32.53-4.83-39.81l-0.09-0.77l0.48-0.61c0.82-1.03,1.86-1.48,2.9-1.94c0.4-0.17,0.79-0.35,1.1-0.61
				c-0.33,0.06-0.67,0.13-1.03,0.2C266.01,262.16,256.47,263.98,251.66,265.22L251.66,265.22z M249.08,264.03
				c0.6,5.03,4.46,2.42,6.69,3.62c1.56,5.1,11.88,71.02,11.99,81.72c0.26,7.03-5.92,3.58-4.43,8.99l23.58-4.75
				c0.33-4.78-4.02-0.85-5.25-3.72c-0.76-1.78-1.53-5.69-2.68-14.54c-2.04-15.64-7.21-58.07-8.71-70.8
				c1.59-2.01,5.85-1.22,4.78-6.04C270.39,259.45,253.51,262.53,249.08,264.03z"/>
		</g>
		<g>
			<linearGradient id="SVGID_25_" gradientUnits="userSpaceOnUse" x1="351.7611" y1="246.098" x2="351.7611" y2="345.7992">
				<stop  offset="2.700000e-07" style="stop-color:#471D59"/>
				<stop  offset="0.6444" style="stop-color:#711B50"/>
				<stop  offset="1" style="stop-color:#88194A"/>
			</linearGradient>
			<path class="st26" d="M373.39,339.95c0.82-0.09,0.37-0.84,0.29-2.43c-0.14-2.71-0.53-6.78-1.12-12.19
				c-0.15-1.37-0.28-2.62-0.39-3.74c-0.29,1.75-0.58,3.41-0.9,4.5c-1.26,4.4-2.78,7.72-5.59,10.21c-2.78,2.47-6.7,3.99-12.72,4.74
				L351,341.3l-0.12-1.99l-3.08-50.66l-0.1-1.71l1.71-0.24c3.17-0.44,5.61-0.56,7.86-0.67c1.63-0.08,3.17-0.15,4.9-0.37
				c1.57-0.19,2.84,0.35,3.93,1.3c0.88,0.77,1.59,1.8,2.23,2.89c0.45,0.77,0.76,1.51,1.06,2.22l0.02,0.05
				c-0.03-0.65-0.08-1.42-0.13-2.32c-0.09-1.65-0.21-3.75-0.35-6.61c-0.11-2.29-0.2-4.21-0.27-5.77c-0.07,0.38-0.16,0.77-0.26,1.17
				c-1.06,4.16-7.58,4.61-13.7,5.04c-1.78,0.12-3.53,0.25-4.97,0.44l-2.01,0.27l-0.1-2.03l-0.12-2.49
				c-0.39-8.22-1.22-25.61-0.83-27.59l0.24-1.22l1.22-0.25c10.25-2.08,13.77,3.63,18.23,10.84c0.53,0.87,1.08,1.76,1.67,2.66
				c0.11-2.05,0.07-5.33-0.11-10.46c-0.02-0.62-0.04-1.28-0.05-1.92c-0.02-0.97-0.04-1.89-0.1-2.78c-0.04-0.65,0.16-1.05-0.67-0.99
				l0,0l-36.87,3.53l-0.19,0.03l0,0c0.09,0.14,0.2,0.18,0.31,0.18c0.09,0,0.35-0.02,0.61-0.05c1.48-0.12,2.88-0.24,3.93,1.52
				c1.98,3.32,2.2,10.19,2.33,14.72c0.03,0.88,0.05,1.66,0.09,2.39c0.02,0.34,0.04,0.75,0.07,1.23c0.02,0.35,0.05,0.81,0.09,1.34
				c0.15,2.24-0.36,4.33-1.32,6.24c-0.88,1.75-2.14,3.33-3.62,4.73c1.37,1.08,2.95,2.58,4.18,4.19c1.23,1.61,2.14,3.38,2.27,5.09
				c0.7,9.25,1.41,19.4,1.77,28.12c0.36,8.76,0.34,15.96-0.46,19.16l-0.22,0.87l-0.82,0.37c-0.91,0.42-1.73,0.7-2.43,0.94
				c-0.76,0.26-1.24,0.43-1.32,1.08L373.39,339.95z M348.49,252.59c11.3-2.29,13.49,6.56,19.71,15.28
				c1.63,0.26,2.01-1.19,1.56-14.12c-0.14-3.99,0-7.72-1.15-7.65l-38.6,3.69l-2.09,0.28c0.09,6.11,4.15,2.15,5.37,4.19
				c2.11,3.53,1.95,12.51,2.16,16.26c0.04,0.78,0.1,1.65,0.16,2.58c0.26,4.04-1.98,7.51-5.11,10.18c-0.41,0.35-0.34,1.23,0.11,1.55
				c2.44,1.73,6.29,5.48,6.52,8.53c1.4,18.59,2.86,40.66,1.36,46.7c-3.8,1.74-5.91,0.97-4.53,5.74l41.23-4.16
				c0.8-0.08,0.41-5.64-0.77-16.5c-1.25-11.47-0.8-11.83-2.23-11.76c-0.95,0-1.74,8.9-2.69,12.21c-2.34,8.14-5.5,12.2-16.74,13.62
				l-3.08-50.66c5.49-0.77,8.74-0.54,12.73-1.03c1.94-0.24,3.23,1.4,4.33,3.27c1.36,2.31,1.58,5.26,4.09,4.97
				c0.87,0.09,0.54-1.01-0.03-12.67c-0.58-11.66-0.37-12.21-1.15-12.21c-2.7,0.3-2.07,3.44-3.04,7.24
				c-0.97,3.79-10.94,3.26-17.11,4.1C349.18,275.92,348.1,254.57,348.49,252.59L348.49,252.59z"/>
		</g>
		<g>
			<linearGradient id="SVGID_26_" gradientUnits="userSpaceOnUse" x1="508.4311" y1="247.085" x2="508.4311" y2="346.851">
				<stop  offset="2.700000e-07" style="stop-color:#471D59"/>
				<stop  offset="0.6444" style="stop-color:#711B50"/>
				<stop  offset="1" style="stop-color:#88194A"/>
			</linearGradient>
			<path class="st27" d="M520.1,270.01c-0.38,4.5-1.01,8.12-2.56,10.75c-1.72,2.91-4.39,4.52-8.72,4.58l-0.34,0.01l-0.31-0.11
				c-1.2-0.44-1.5-3.16-1.35-6.89c0.13-3.03,0.37-6.81,0.61-10.35c0.11-1.63,0.2-3.1,0.29-4.5c0.31-4.94,0.58-9.11,0.97-10.36v-0.01
				c0.4-1.28,1.16-1.82,2.33-1.53c4.46,0.54,7.02,1.85,8.39,5.01C520.64,259.42,520.64,263.55,520.1,270.01L520.1,270.01z
				 M508.8,283.48c-0.49-0.18-0.01-8.21,0.49-15.37c0.51-7.5,0.84-14.85,1.37-14.68c7.67,0.89,8.62,4.1,7.59,16.43
				C517.54,278.34,515.95,283.37,508.8,283.48L508.8,283.48z M488.63,282.21c-0.4-0.38-0.34-1.26,0.11-1.55
				c2.93-1.84,5.96-4.96,6.22-8.44l0.12-1.64c0.51-9.99,0.36-14.51-0.21-16.7c-0.84-3.28-4.58-1.04-4.22-6.78
				c5.07-0.19,15.79,2.26,21.35,2.16c11.1,1.36,16.59,2.09,18.52,9.16c2.74,30.66-8.33,31.71-13.5,31.74
				c15,4.42,7.09,31.9,9.86,43.12c4,3.78,3.27-10.78,5.04-10.42c1.17,1.9,0.96,11.21-2.45,17.37c-2.72,4.91-7.44,8.2-12.25,5.85
				c-10.63-5.19-0.21-57.05-8.72-57.31c-0.57,0.27-1.2,1.28-1.41,2.8c-0.77,5.76-1.73,20.62-2.3,32.34
				c-0.39,7.9-0.6,14.37-0.46,15.67c0.17,1.63,4.75,1.15,3.85,5.76l-23.67-2.53c-1.39-4.59,4.23-2.52,5.16-4.67
				c0.57-1.31,0.33-1.42,0.7-4.53c0.47-3.89,0.68-8.52,0.98-12.35l2.17-29.46C493.79,288.1,491.29,284.73,488.63,282.21
				L488.63,282.21z M494.67,277.74c-1.11,1.5-2.54,2.82-4,3.86c1.17,1.2,2.28,2.55,3.12,4.04c1.09,1.91,1.75,4.03,1.59,6.27
				l-2.17,29.46v0.01c-0.1,1.34-0.19,2.56-0.27,3.8c-0.19,2.91-0.4,5.96-0.72,8.63c-0.13,1.06-0.18,1.74-0.22,2.25
				c-0.1,1.23-0.13,1.65-0.63,2.8c-0.76,1.75-2.32,2.04-3.91,2.33c-0.06,0.01-0.12,0.02-0.18,0.03l18.71,2
				c-0.3-0.34-0.72-0.55-1.08-0.74c-1.22-0.62-2.25-1.14-2.42-2.72c-0.07-0.7-0.06-2.62,0.02-5.33c0.08-2.86,0.24-6.58,0.44-10.63
				c0.31-6.4,0.74-13.65,1.18-19.81c0.38-5.32,0.78-9.95,1.14-12.68c0.12-0.93,0.38-1.73,0.7-2.36c0.02-0.04,0.04-0.07,0.06-0.11
				l-1.63-0.48l1.93-0.01c0.41-0.6,0.9-1.04,1.4-1.27l0.4-0.19l0.45,0.01c1.13,0.04,2.04,0.54,2.76,1.42l5.69-0.03
				c2.21-0.01,5.69-0.24,8.24-3.64c2.82-3.77,4.72-11.22,3.44-25.87c-0.8-2.82-2.29-4.39-4.69-5.37c-2.74-1.13-6.76-1.64-12.14-2.3
				c-2.92,0.03-6.96-0.55-10.93-1.12c-3-0.43-5.97-0.86-8.26-1c0.22,0.63,0.62,0.84,1.03,1.04c1.22,0.61,2.43,1.22,2.98,3.38
				c0.32,1.23,0.52,3.05,0.56,5.86c0.05,2.71-0.04,6.38-0.3,11.39v0.04l-0.12,1.64C496.67,274.31,495.85,276.14,494.67,277.74
				L494.67,277.74z M516.5,291.93l-3.89-1.15c1.65,4.76,1.5,13.33,1.35,22.47c-0.23,13.75-0.48,28.92,4.08,31.15
				c1.7,0.83,3.38,0.72,4.89,0c1.93-0.92,3.65-2.79,4.92-5.08c0.66-1.19,1.19-2.51,1.6-3.88c-1.11,0.72-2.37,0.57-3.85-0.82
				l-0.39-0.37l-0.13-0.53c-0.93-3.77-0.75-9.02-0.55-14.67C524.94,307.67,525.4,294.56,516.5,291.93z"/>
		</g>
		<g>
			<linearGradient id="SVGID_27_" gradientUnits="userSpaceOnUse" x1="558.2029" y1="253.5992" x2="558.2029" y2="356.221">
				<stop  offset="2.700000e-07" style="stop-color:#471D59"/>
				<stop  offset="0.6444" style="stop-color:#711B50"/>
				<stop  offset="1" style="stop-color:#88194A"/>
			</linearGradient>
			<path class="st28" d="M545.36,255.72c0.24,0.79,0.84,1.02,1.39,1.24c1.26,0.49,2.43,0.95,3.01,2.57
				c1.33,3.71,0.28,10.44-0.41,14.88c-0.14,0.91-0.27,1.72-0.35,2.35l-0.01,0.09l-0.02,0.08c-0.06,0.25-0.12,0.59-0.2,1.01
				c-0.07,0.41-0.13,0.74-0.16,0.98c-0.28,2.12-1.12,3.98-2.34,5.6c-1.1,1.45-2.51,2.69-4.09,3.73c1.21,1.33,2.42,2.91,3.26,4.62
				c0.84,1.72,1.32,3.57,1.1,5.44c-0.37,3.17-0.69,6.26-1.02,9.46c-1.15,11.04-2.43,23.37-4.82,33.55c-1.11,4.71-2.93,5.84-4.7,6.18
				c5.75,0.99,11.16,1.96,16.48,2.96c6.45,1.21,12.74,2.47,19.36,3.86h0.01c0.47,0.1,0.81-0.38,1.34-2.49
				c0.71-2.83,1.37-7.54,2.33-15.04c-4.23,10.04-9,14.96-24.4,12.86l-1.84-0.25l0.25-1.84l6.9-51.3l0.25-1.83l1.82,0.22
				c3.14,0.39,5.57,0.94,7.81,1.44c1.65,0.37,3.2,0.73,4.89,0.96c2.75,0.38,3.53,3.01,4.25,5.45c0.13,0.44,0.26,0.88,0.38,1.23
				c0.29,0.84,0.46,1.65,0.62,2.41c0.01,0.04,0.02,0.09,0.03,0.13c0.08-0.59,0.17-1.28,0.27-2.08c0.23-1.8,0.53-4.08,0.86-6.52
				c0.39-2.84,0.64-4.65,0.85-6.07c-0.15,0.39-0.33,0.79-0.53,1.2c-1.82,3.81-7.85,2.48-13.76,1.18c-2.02-0.44-4.02-0.88-5.59-1.08
				l-1.87-0.24l0.26-1.86l0.34-2.46l0,0c1.11-8.04,3.41-24.73,4.16-26.56l0.5-1.24l1.33,0.08c9.67,0.59,14.45,11.58,17.04,17.55
				c0.08-0.33,0.16-0.67,0.23-1.02c1.04-4.76,1.98-11.41,2.06-12.58c0.07-1.11,0-1.56-0.12-1.7c-0.07-0.08-0.05,0.07-0.16,0.06
				l-0.09-0.01l-0.11-0.02L545.36,255.72L545.36,255.72z M563.2,262.47c11.49,0.7,15.64,19.16,17.32,19.97
				c1.45,0.7,3.85-15.8,3.98-17.76c0.22-3.39-1.1-3.54-1.98-3.61l-36.91-7.2l-2.09-0.27c-1.03,5.97,3.67,4.25,4.49,6.55
				c1.43,3.99-0.37,12.67-0.85,16.37c-0.16,0.74-0.29,1.45-0.38,2.15c-0.5,3.78-3.11,6.59-6.48,8.55c-0.47,0.27-0.55,1.15-0.17,1.55
				c2.36,2.4,4.97,5.91,4.57,9.32c-1.5,12.88-2.72,29.67-5.81,42.8c-2.02,8.6-6.52,1.82-6.99,7.79c14.45,2.45,26.35,4.68,39.58,7.46
				c3.39,0.73,3.86-2.88,6.58-24.47c0.31-2.44,0.21-4.05-0.99-4.12c-5.42,14.77-7.87,22.69-25.68,20.25l6.9-51.3
				c5.52,0.68,8.68,1.84,12.67,2.4c1.94,0.27,2.4,3.34,3.13,5.45c0.91,2.6,0.59,5.52,3.1,5.9c0.84,0.31,0.72-0.84,2.28-12.33
				c1.56-11.49,1.86-11.97,1.1-12.17c-2.7-0.41-2.66,2.81-4.3,6.25c-1.64,3.44-11.24-0.15-17.44-0.94
				C559.68,284.84,562.46,264.29,563.2,262.47L563.2,262.47z M579.63,288.37c0.53-0.65,0.96-0.68,0.61-0.8
				C580.02,287.59,579.83,287.89,579.63,288.37z"/>
		</g>
		<g>
			<linearGradient id="SVGID_28_" gradientUnits="userSpaceOnUse" x1="707.7012" y1="295.1593" x2="707.7012" y2="404.4375">
				<stop  offset="2.700000e-07" style="stop-color:#471D59"/>
				<stop  offset="0.6444" style="stop-color:#711B50"/>
				<stop  offset="1" style="stop-color:#88194A"/>
			</linearGradient>
			<path class="st29" d="M700.58,297.78c0.25,0.53,0.75,0.79,1.21,1.04c1.24,0.66,2.4,1.28,2.81,2.99
				c0.95,3.98-0.82,10.44-1.98,14.7c-0.23,0.84-0.43,1.59-0.6,2.25l-0.34,1.39l-0.37,1.54c-0.44,1.82-1.53,3.4-2.92,4.72
				c-1.31,1.24-2.89,2.25-4.42,3c0.98,1.41,1.94,3.08,2.55,4.82c0.6,1.75,0.85,3.57,0.42,5.32c-0.22,0.9-0.46,1.89-0.72,2.95
				c-3.09,12.76-8.71,35.96-13.2,42.81l-0.59,0.89l-1.07-0.06c-1.06-0.06-1.9-0.18-2.62-0.29c-0.58-0.09-1.07-0.16-1.35-0.17
				c-0.03,0-0.06,0.11-0.07,0.51l38.77,16.5l0,0c0.67,0.25-1.23-0.75-1.04-1.35c0.63-1.98,1.45-5.3,2.64-10.5
				c0.33-1.45,0.54-2.35,0.74-3.18c0.03-0.12,0.06-0.24,0.08-0.35c-3.18,4.9-9.16,9.28-21.96,4.61l-1.56-0.57l0.39-1.61l11.72-48.94
				l0.48-2l1.94,0.68c3.17,1.11,5.5,2.35,7.64,3.49c1.61,0.86,3.11,1.66,4.8,2.28c1.44,0.53,2.43,1.54,3.13,2.82l0.01,0.01
				c0.6,1.08,0.97,2.34,1.27,3.62c0.2,0.88,0.29,1.72,0.37,2.52c0.02,0.22,0.04,0.43,0.07,0.63c0.14-0.58,0.31-1.26,0.5-2.06
				c0.44-1.82,1.01-4.14,1.55-6.29c0.49-1.93,1.08-4.23,1.54-6.01c0.11-0.42,0.23-0.79,0.35-1.12c-0.32,0.64-0.69,1.31-1.15,2
				c-2.51,3.78-10.33,0.82-16.84-1.65c-1.12-0.43-2.21-0.84-3.27-1.21l-1.61-0.57l0.42-1.64l0.43-1.7c1.97-7.75,6.9-27.08,7.9-28.82
				l0.57-1L700.58,297.78L700.58,297.78z M681.45,384.3c-4.17-0.22-5.98-1.95-6.02,3.13l39.92,16.99c0.79,0.31,1.72-2.59,4.14-13.14
				c1.81-7.89,3.04-12.03,1.65-12.71c-2.23-1.1-2.29,19.53-23.96,11.62l11.72-48.94c5.51,1.93,8.43,4.31,12.41,5.77
				c1.94,0.71,2.71,2.85,3.24,5.11c0.65,2.79,0.02,5.62,2.52,6.57c0.81,0.5,0.81-0.67,3.6-11.74c2.79-11.06,3.14-11.47,2.39-11.85
				c-2.69-1.02-2.98,2.19-5.01,5.23c-2.02,3.04-11.75-1.4-17.94-3.6c1.53-5.97,7.2-28.41,8.14-30.06
				c11.56,3.32,10.81,13.88,14.31,24.94c1.5,1.03,2.28-0.13,5.56-12.31c1.01-3.75,2.59-6.7,1.45-7.19l-38.65-16.23l-2.09-0.75
				c-1.67,5.7,3.37,4.62,3.96,7.09c1.03,4.29-1.71,12.52-2.58,16.08c-0.21,0.87-0.45,1.86-0.71,2.93c-0.78,3.2-4.28,5.65-7.27,6.9
				c-0.5,0.21-0.7,1.07-0.37,1.51c1.92,2.55,4.04,6.28,3.27,9.46C692.29,350.75,686.14,377.15,681.45,384.3L681.45,384.3z
				 M720.32,380.46c0.03-0.14,0.03-0.21,0.01-0.22l-0.01-0.01C719.73,379.94,719.95,380.13,720.32,380.46L720.32,380.46z
				 M731.47,337.94c0.66-0.97,1.19-0.92,0.88-1.1C732.1,336.81,731.82,337.26,731.47,337.94L731.47,337.94z M725.16,308.11
				c4.51,3.7,5.82,9.35,7.29,15.7c0.34,1.46,0.69,2.96,1.09,4.49c0.67-1.84,1.54-4.83,2.78-9.45c0.31-1.16,0.7-2.3,1.04-3.3v-0.01
				c0.4-1.18,2.25-1.35,1.49-1.69l0,0L725.16,308.11z"/>
		</g>
		<g>
			<linearGradient id="SVGID_29_" gradientUnits="userSpaceOnUse" x1="162.3101" y1="241.9363" x2="162.3101" y2="406.8297">
				<stop  offset="2.700000e-07" style="stop-color:#471D59"/>
				<stop  offset="0.6444" style="stop-color:#711B50"/>
				<stop  offset="1" style="stop-color:#88194A"/>
			</linearGradient>
			<path class="st30" d="M131.8,344.16c2.29-0.87,4.38-1.79,6.33-2.65c2.27-0.99,4.36-1.91,6.24-2.56c2.89-1,4.77,1.21,6.46,3.18
				l0.35,0.41l0,0c0.55,0.64,0.99,1.31,1.4,1.94c0.02,0.03,0.03,0.05,0.05,0.08c-0.15-0.66-0.33-1.45-0.55-2.39
				c-0.33-1.45-0.76-3.29-1.45-6.39c-0.78-3.5-1.1-4.98-1.35-6.14c-0.77-3.57,1.53-4.36,0.46-4.14c-0.69,0.28-0.71,0.77-0.75,1.99
				c-0.02,0.67-0.05,1.45-0.11,2.21c-0.35,4.36-8.34,7.56-14.73,10.13c-1.22,0.49-2.37,0.95-3.54,1.46l-1.87,0.81l-0.63-1.95
				c-0.47-1.46-1.72-6.4-3.16-12.31c-2.56-10.49-5.7-23.83-6.32-26.49l-0.35-1.53l1.46-0.61c6.29-2.61,18.48-7.58,31.93-12.7
				c13.5-5.13,28.32-10.42,39.92-13.67c1.78-0.5,4.62-1.46,7.96-2.59c2.99-1.01,6.36-2.15,9.63-3.19
				c11.01-3.49,16.19-8.6,17.51-13.22c0.62-2.17,0.36-4.22-0.56-5.88c-0.92-1.68-2.51-2.99-4.55-3.67
				c-3.57-1.2-8.47-0.46-13.62,3.53c0.68,0.72,1.23,1.44,1.65,2.16c1.48,2.53,1.4,4.91,0.34,7.09c-0.95,1.95-2.7,3.67-4.77,5.13
				v0.01c-3.31,2.34-7.52,4.09-10.31,5.06c-11.32,3.95-33.16,12.45-53.43,20.58c-19.5,7.83-37.51,15.3-43.24,18.03
				c0.94,1.25,1.95,0.8,2.76,0.44c2.12-0.95,3.85-1.72,5.01,1.26c0.62,1.59,1.18,2.99,1.75,4.43c1.23,3.08,2.51,6.31,3.63,9.4
				c1.6,4.44,2.88,9.17,4.11,13.77l0.43,1.58c0.47,1.76,0.3,3.68-0.25,5.54c-0.51,1.75-1.36,3.46-2.27,4.88
				c1.3,0.58,2.63,1.29,3.8,2.19c1.61,1.24,2.91,2.8,3.45,4.8l0.96,3.52l-0.01,0l0.97,3.54c0.45,1.63,0.9,3.26,1.34,4.88
				c4.08,14.86,7.9,28.74,7.59,33.95c-0.08,1.33-0.39,2.22-0.82,2.86l16.75-7.42c-1.5,0.16-2.93,0.3-4.13-1.07
				c-0.77-0.89-1.45-2.33-2.34-5.19c-0.8-2.58-1.86-6.54-3.44-12.66c-0.71-2.76-1.77-6.37-2.88-10.19
				c-1.8-6.16-3.76-12.87-4.76-17.6c-0.09-0.42-0.17-0.73-0.24-0.97c-0.2-0.73-0.32-1.15-0.11-1.84l0,0
				c0.34-1.09,0.87-1.3,2.12-1.77l0,0L131.8,344.16L131.8,344.16z M154.6,347.76c0.87-0.1,0.36-1.1-2.15-12.37
				c-2.51-11.27-2.4-11.85-3.16-11.68c-2.59,0.86-1.94,1.96-2.25,5.87c-0.31,3.91-11.22,7.46-17.15,10.02
				c-1.27-3.93-8.45-34.43-9.43-38.65c12.53-5.19,48.59-19.85,71.64-26.29c3.52-0.98,10.43-3.51,17.65-5.79
				c34.78-11.02,15.34-38.99-4.6-21.08c10.65,8.62-4.25,15.45-10.88,17.76c-23.68,8.26-93.01,36.28-98.55,39.55
				c2.95,7.83,7.36,0.15,8.54,3.18c1.66,4.27,3.66,9.08,5.36,13.79c1.75,4.83,3.12,10.14,4.49,15.2c0.85,3.14-0.97,7.2-2.85,9.77
				c-0.32,0.44-0.04,1.28,0.47,1.48c2.92,1.17,6.29,3.06,7.13,6.16c0.63,2.34,1.28,4.7,1.92,7.06c4.5,16.45,9.19,32.78,8.86,38.23
				c-0.28,4.63-4.89,1.08-3.14,6.85l24.55-10.88c-0.77-4.35-4.88-1.05-6.34-2.73c-1.2-1.38-2.26-4.99-5.39-17.1
				c-1.86-7.18-6.02-20.08-7.63-27.7c-0.45-2.14-0.89-1.89,0.77-2.53c4.77-1.82,8.98-3.97,12.51-5.19c1.86-0.64,3.41,1.44,4.8,3.04
				C151.49,345.73,152.2,348.56,154.6,347.76z"/>
		</g>
	</g>
	<g>
		<polygon class="st31" points="121.29,339.58 126.34,345.31 124.79,352.79 119.74,347.06 		"/>
		<polygon class="st31" points="165.72,321.17 170.76,326.91 169.18,334.38 164.15,328.64 		"/>
		<polygon class="st31" points="215.26,304.56 219.96,310.58 217.96,317.95 213.26,311.93 		"/>
		<polygon class="st31" points="266.77,291.67 271.18,297.9 268.83,305.17 264.43,298.93 		"/>
		<polygon class="st31" points="306.5,284.03 310.6,290.47 307.9,297.61 303.8,291.17 		"/>
		<polygon class="st31" points="341.67,279.02 345.55,285.59 342.62,292.64 338.74,286.07 		"/>
		<polygon class="st31" points="422.48,275.08 425.75,281.97 422.2,288.73 418.93,281.84 		"/>
		<polygon class="st31" points="452.49,275.19 455.72,282.11 452.13,288.85 448.9,281.93 		"/>
		<polygon class="st31" points="500.98,278.68 503.93,285.71 500.08,292.3 497.12,285.26 		"/>
		<polygon class="st31" points="551.9,285.51 554.59,292.65 550.49,299.09 547.8,291.95 		"/>
		<polygon class="st31" points="612.94,298.53 615,305.88 610.36,311.94 608.3,304.59 		"/>
		<polygon class="st31" points="681.06,319.89 682.85,327.32 677.99,333.2 676.2,325.78 		"/>
		<polygon class="st31" points="704.31,328.87 705.8,336.36 700.69,342.04 699.21,334.55 		"/>
	</g>
	<path class="st32" d="M569.36,365.34c0,0,38.09,8.04,72.68,21.67s59.68,27.35,68.06,35.04c8.39,7.69,12.93,14.68,12.58,18.87
		c-0.35,4.19-3.07,9.34-14.95,7.59c-30.03-4.41-124.92-59.45-159.34-42.28C554.51,382.11,569.36,365.34,569.36,365.34z
		 M277.23,365.34c0,0-38.09,8.04-72.68,21.67c-34.59,13.63-59.68,27.35-68.06,35.04c-8.39,7.69-12.93,14.68-12.58,18.87
		c0.35,4.19,3.07,9.34,14.95,7.59c30.03-4.41,124.92-59.45,159.34-42.28C292.08,382.11,277.23,365.34,277.23,365.34z"/>
	<g>
		<defs>
			<path id="SVGID_30_" d="M569.36,365.34c0,0,38.09,8.04,72.68,21.67s59.68,27.35,68.06,35.04c8.39,7.69,12.93,14.68,12.58,18.87
				s-3.07,9.34-14.95,7.59c-30.03-4.41-124.92-59.45-159.34-42.28C554.51,382.11,569.36,365.34,569.36,365.34z M277.23,365.34
				c0,0-38.09,8.04-72.68,21.67c-34.59,13.63-59.68,27.35-68.06,35.04c-8.39,7.69-12.93,14.68-12.58,18.87
				c0.35,4.19,3.07,9.34,14.95,7.59c30.03-4.41,124.92-59.45,159.34-42.28C292.08,382.11,277.23,365.34,277.23,365.34z"/>
		</defs>
		<clipPath id="SVGID_31_">
			<use xlink:href="#SVGID_30_"  style="overflow:visible;"/>
		</clipPath>
		<path class="st33" d="M120.87,463.56l-36.68-34.4l43.2-99.22l210.31-28.87c0,0,29.72,78.07-6.62,69.68
			c-54.17-12.5-148.92,27.02-173.32,82.47L120.87,463.56z M725.72,463.56l36.68-34.4l-43.2-99.22L508.9,301.08
			c0,0-29.72,78.07,6.62,69.68c54.17-12.5,148.92,27.02,173.32,82.47L725.72,463.56z"/>
	</g>
	<path class="st0" d="M582.9,435.77c0,0-2.45-8.39-1.4-13.45c1.05-5.07,8.04-9.09,8.04-9.09c-10.49-3.75-47.74-8.64-39.66,6.99
		c3.36,6.5,14.68,11.71,20.44,13.28C576.08,435.07,582.9,435.77,582.9,435.77z"/>
	<path class="st0" d="M263.7,435.77c0,0,2.45-8.39,1.4-13.45s-8.04-9.09-8.04-9.09c10.49-3.75,47.74-8.64,39.66,6.99
		c-3.36,6.5-14.68,11.71-20.44,13.28C270.51,435.07,263.7,435.77,263.7,435.77z"/>
	<g>
		<g>
			<radialGradient id="SVGID_32_" cx="423.773" cy="155.3772" r="55.139" gradientUnits="userSpaceOnUse">
				<stop  offset="0.2032" style="stop-color:#6AA9B5"/>
				<stop  offset="0.3626" style="stop-color:#63A0AF"/>
				<stop  offset="0.4788" style="stop-color:#5E9AAA"/>
				<stop  offset="0.6173" style="stop-color:#478196"/>
				<stop  offset="0.6888" style="stop-color:#447D93"/>
				<stop  offset="0.7514" style="stop-color:#488397"/>
				<stop  offset="0.8896" style="stop-color:#5A9DA8"/>
			</radialGradient>
			<path class="st34" d="M423.3,146.42c13.41,0,24.28,10.87,24.28,24.28c0,8.59-4.47,16.15-11.2,20.46c0,0-1.12,2.34-3.56,7.41
				c-2.45,5.07-9.52,15.72-9.52,15.72s-7.07-10.66-9.52-15.72c-2.45-5.07-3.56-7.41-3.56-7.41c-6.74-4.32-11.2-11.87-11.2-20.46
				C399.02,157.29,409.89,146.42,423.3,146.42z"/>
			<g>
				<defs>
					<path id="SVGID_33_" d="M423.3,146.42c13.41,0,24.28,10.87,24.28,24.28c0,8.59-4.47,16.15-11.2,20.46c0,0-1.12,2.34-3.56,7.41
						c-2.45,5.07-9.52,15.72-9.52,15.72s-7.07-10.66-9.52-15.72c-2.45-5.07-3.56-7.41-3.56-7.41c-6.74-4.32-11.2-11.87-11.2-20.46
						C399.02,157.29,409.89,146.42,423.3,146.42z"/>
				</defs>
				<clipPath id="SVGID_34_">
					<use xlink:href="#SVGID_33_"  style="overflow:visible;"/>
				</clipPath>
				<path class="st35" d="M413.84,150.25c-9.02,3.3-13.6,17.51-7.86,12.35c3.72-3.35-0.08,1.96,2.05,3.49
					c1.69,1.22,4-7.38,16.09-7.21c9.17,0.13,13.97,8.32,16.87,5.84c1.28-1.09-1.16-3.23,1.69-3.82c2.6-0.53-6.42-11.76-14.53-13.47
					C408.14,143.22,395.67,153.63,413.84,150.25z"/>
				<path class="st36" d="M423.3,129.91c-28.08,0-50.85,21.94-50.85,49.01s22.77,49.01,50.85,49.01c28.08,0,50.85-21.94,50.85-49.01
					S451.38,129.91,423.3,129.91z M423.9,200.19c-9.12,0-26.95-16.14-26.95-25.25s5.45-26.76,12.72-32.27
					c22.94-17.4,54.17,11.21,43.61,33.63C449.38,184.54,433.01,200.19,423.9,200.19z"/>
			</g>
		</g>
		
			<radialGradient id="SVGID_35_" cx="423.2963" cy="180.639" r="19.7134" gradientTransform="matrix(1 0 0 0.6966 0 54.8075)" gradientUnits="userSpaceOnUse">
			<stop  offset="0.4492" style="stop-color:#932674"/>
			<stop  offset="0.9955" style="stop-color:#451D5A"/>
		</radialGradient>
		<path class="st37" d="M423.3,185.24c8.04,0,14.59-6.55,14.59-14.59c0-8.04-6.55-14.59-14.59-14.59c-8.04,0-14.59,6.55-14.59,14.59
			C408.71,178.68,415.26,185.24,423.3,185.24z"/>
		<g>
			<defs>
				<path id="SVGID_36_" d="M423.3,185.24c8.04,0,14.59-6.55,14.59-14.59c0-8.04-6.55-14.59-14.59-14.59
					c-8.04,0-14.59,6.55-14.59,14.59C408.71,178.68,415.26,185.24,423.3,185.24z"/>
			</defs>
			<clipPath id="SVGID_37_">
				<use xlink:href="#SVGID_36_"  style="overflow:visible;"/>
			</clipPath>
			<path class="st38" d="M422.7,125.99c-28.08,0-50.85,21.94-50.85,49.01s22.77,49.01,50.85,49.01c28.08,0,50.85-21.94,50.85-49.01
				S450.78,125.99,422.7,125.99z M423.3,196.27c-9.12,0-16.55-7.44-16.55-16.55c0-9.12,7.44-16.55,16.55-16.55
				c9.12,0,16.55,7.44,16.55,16.55C439.85,188.84,432.41,196.27,423.3,196.27z"/>
		</g>
		<g>
			<path class="st39" d="M423.3,156.06c8.04,0,14.59,6.55,14.59,14.59c0,8.04-6.55,14.59-14.59,14.59
				c-8.04,0-14.59-6.55-14.59-14.59C408.71,162.61,415.26,156.06,423.3,156.06 M423.3,153.26c-9.59,0-17.39,7.8-17.39,17.39
				c0,9.59,7.8,17.39,17.39,17.39c9.59,0,17.39-7.8,17.39-17.39C440.68,161.06,432.88,153.26,423.3,153.26L423.3,153.26z"/>
		</g>
	</g>
	<g>
		<defs>
			<path id="SVGID_38_" d="M285.71,246.05c20.01-42.47,61.15-72.48,109.21-81.05c-0.37,1.84-0.56,3.75-0.56,5.7
				c0,2.46,0.31,4.86,0.9,7.15c0.6,2.36,1.5,4.61,2.65,6.71c1.08,1.97,2.38,3.8,3.86,5.46c1.44,1.61,3.05,3.05,4.8,4.29l1.29,2.69
				l1.73,3.59c2.54,5.26,9.98,16.39,10.25,16.81l0.01,0.02c0.28,0.43,0.54,0.88,0.78,1.31c0.77,1.36,1.44,2.55,2.64,2.57
				c1.23,0.02,2.17-1.57,3.1-3.14l0.43-0.73c1.09-1.78,2.21-3.52,3.34-5.26c2.44-3.76,4.89-7.53,6.84-11.57l1.73-3.59l1.29-2.69
				c1.75-1.24,3.36-2.68,4.8-4.29c1.49-1.66,2.78-3.49,3.86-5.46c1.15-2.1,2.05-4.35,2.65-6.71c0.59-2.29,0.9-4.69,0.9-7.15
				c0-1.92-0.19-3.8-0.55-5.61c48.22,8.93,88.61,40.18,110.05,82.63c-47.21-8.85-90.06-11.99-138.41-13.08
				C392.1,233.94,322.96,238.48,285.71,246.05z"/>
		</defs>
		<clipPath id="SVGID_39_">
			<use xlink:href="#SVGID_38_"  style="overflow:visible;"/>
		</clipPath>
		<g class="st40">
			<polygon class="st41" points="423.71,317.47 328.72,184.34 381.13,144.5 423.3,142.55 			"/>
			<polygon class="st42" points="423.71,317.47 257.35,228.38 328.72,184.34 			"/>
			<polygon class="st42" points="423.56,317.47 518.55,184.34 466.14,144.5 423.97,142.55 			"/>
			<polygon class="st41" points="423.56,317.47 591.08,234.63 518.55,184.34 			"/>
		</g>
		<g class="st40">
			<defs>
				<path id="SVGID_40_" d="M423.32,173c56.4,0,105.26,32.32,129.05,79.45c9.87,19.54,15.42,41.63,15.42,65.02
					c0,79.79-64.68,144.47-144.47,144.47c-112.02,0-174.68-112.5-128.25-211.05C317.31,203.7,367.55,173,423.32,173z"/>
			</defs>
			<clipPath id="SVGID_41_">
				<use xlink:href="#SVGID_40_"  style="overflow:visible;"/>
			</clipPath>
			<g class="st43">
				<polygon class="st44" points="423.71,317.47 328.72,184.34 381.13,144.5 423.3,142.55 				"/>
				<polygon class="st45" points="423.71,317.47 257.35,228.38 328.72,184.34 				"/>
				<polygon class="st45" points="423.56,317.47 518.55,184.34 466.14,144.5 423.97,142.55 				"/>
				<polygon class="st44" points="423.56,317.47 591.08,234.63 518.55,184.34 				"/>
			</g>
		</g>
		<path class="st46" d="M423.32,173c56.4,0,105.26,32.32,129.05,79.45c9.87,19.54,15.42,41.63,15.42,65.02
			c0,79.79-64.68,144.47-144.47,144.47c-112.02,0-174.68-112.5-128.25-211.05C317.31,203.7,367.55,173,423.32,173z"/>
		<g class="st40">
			<path class="st47" d="M412.65,166.08c-0.03,0.06-0.06,0.12-0.09,0.18c-0.42,0.9-0.71,2.35,0.3,4.19
				c0.76,1.39,1.78,2.18,3.04,2.36l0.01,0.33l0.02,0.81l0.35,0.73c1.66,3.44,2.31,5.83,2.66,7.13c-0.01,0.07-0.02,0.13-0.03,0.2
				c-0.28,0.93-0.6,1.97-0.93,3.01c-2.59,8.34-2.75,8.84-1.48,10.56l1.13,1.53h1.88c0.38,0,1.12-0.07,1.88-0.5
				c0.79,0.39,1.88,1.09,2.42,1.44c1.39,0.9,2.3,1.5,3.63,1.5c1.48,0,2.8-0.82,3.44-2.14c1.13-2.33,0.57-3.3-5.18-10.59l0.48-0.99
				l2.2-2.38c0.36-0.08,0.97-0.15,1.4-0.2c1.81-0.2,4.28-0.48,6.01-2.41c1.3-1.45,1.69-2.44,2.05-3.49
				c0.13-0.38,0.22-0.66,0.49-1.16c0.7-1.28,0.81-2.68,0.3-3.94c-0.76-1.91-2.5-2.62-3.74-3.03c-0.2-0.96-0.65-1.82-1.19-2.58
				c5.82,0.31,13.82,1.39,17.2,2.13l0.06,0.01l0.06,0.01c22.9,4.24,44.86,13.94,63.5,28.05c16.33,12.36,30.14,28.11,40.28,45.87
				c-39.92-7.05-79.76-10.59-131.38-11.75c-2.13-0.05-4.47-0.07-6.96-0.07c-33.54,0-89.05,4.02-124,10.14
				c20.35-37.53,58.36-64.33,103.12-72.32l0.07-0.01l0.07-0.01C402.21,167.24,408.62,166.27,412.65,166.08 M414.05,162.31
				c-4.27,0-11.81,1.1-19.13,2.69c-48.06,8.58-89.2,38.59-109.21,81.05c34.71-7.05,97.13-11.48,130.74-11.48
				c2.45,0,4.75,0.02,6.87,0.07c48.35,1.09,91.19,4.22,138.41,13.08c-21.43-42.46-61.82-73.71-110.05-82.63
				c-4.42-0.96-15.12-2.3-20.92-2.3c-2.35,0-3.9,0.22-3.9,0.77c0,2.46,4.92,4.79,4.33,7.09c-0.6,2.36,5,1.62,3.85,3.73
				c-1.08,1.97-0.56,2.3-2.04,3.95c-1.44,1.61-5.13,0.79-6.88,2.03l-3.07,3.32l-1.73,3.59c5.26,6.65,6.6,8.53,6.11,8.53
				c-0.63,0-4.36-3.19-6.56-3.19c-0.52,0-0.96,0.18-1.25,0.63c-0.05,0.08-0.09,0.12-0.12,0.12c-0.31,0,1.94-6.88,3.17-10.96
				c-0.01,0-0.01,0-0.02,0c-0.08,0-0.06-0.15,0.18-0.57c-0.28-0.41-0.68-3.52-3.22-8.78l-0.05-2.4v-0.88
				c-1.63-1.15-1.28-0.97-2.38-2.23c-0.31,0.03-0.63,0.03-0.88,0.07c0.07,0.65,0.27,1.51,0.15,1.51c-0.05,0-0.15-0.13-0.33-0.46
				c-0.41-0.75-0.21-0.97,0.19-1.04c-0.04-0.4-0.03-0.72,0.15-0.72c0.1,0,0.24,0.1,0.46,0.34c0.1,0.11,0.19,0.21,0.27,0.31
				c0.58-0.06,1.09-0.26,0.84-1.26c-0.59-2.29-0.48-0.55-0.48-3.01C417.56,162.6,416.23,162.31,414.05,162.31L414.05,162.31z
				 M423.68,177.19c-0.12,0-0.23,1.16-0.34,2.24c0.38-0.76,0.72-1.61,0.37-2.21C423.7,177.2,423.69,177.19,423.68,177.19
				L423.68,177.19z M423.33,179.43c-0.48,0.96-1.03,1.78-0.36,1.79l0.33-1.62c0-0.01,0.01-0.02,0.01-0.02
				C423.32,179.52,423.33,179.48,423.33,179.43L423.33,179.43z M423.42,179.47c-0.02,0-0.05,0.03-0.1,0.11
				c-0.05,0.42-0.09,0.82-0.14,1.12C423.39,179.93,423.49,179.47,423.42,179.47L423.42,179.47z M423.18,180.69
				c-0.04,0.16-0.09,0.34-0.15,0.53c0,0,0.01,0,0.01,0C423.09,181.16,423.13,180.96,423.18,180.69L423.18,180.69z M422.97,181.22
				l-0.12,0.61L422.97,181.22c0.01,0.02,0.02,0.03,0.04,0.03c0,0,0.01,0,0.01,0c0-0.01,0-0.01,0.01-0.02
				C423.01,181.22,422.99,181.22,422.97,181.22L422.97,181.22z M423.04,181.22c-0.01,0.01-0.01,0.02-0.02,0.02
				c-0.1,0.35-0.22,0.74-0.34,1.16C422.92,182.35,423.81,181.29,423.04,181.22L423.04,181.22z"/>
		</g>
		<radialGradient id="SVGID_42_" cx="423.7078" cy="317.4734" r="144.2787" gradientUnits="userSpaceOnUse">
			<stop  offset="0" style="stop-color:#BF1281"/>
			<stop  offset="1" style="stop-color:#FFFFFF"/>
		</radialGradient>
		<path class="st48" d="M423.32,173c56.4,0,105.26,32.32,129.05,79.45c9.87,19.54,15.42,41.63,15.42,65.02
			c0,79.79-64.68,144.47-144.47,144.47c-112.02,0-174.68-112.5-128.25-211.05C317.31,203.7,367.55,173,423.32,173z"/>
		<path class="st49" d="M423.3,142.55c17.63,0,28.74,14.27,28.71,31.76c0,0-1.45,20.2-11.52,26.6c-4.37,9.09-7.58,15.76-10.18,20.2
			c-8.4,14.34-10.39,5.37-24.2-20.2c-9.16-5.82-11.51-25.15-11.52-26.6C394.41,156.82,405.67,142.55,423.3,142.55z"/>
	</g>
	<path class="st47" d="M451.77,165.46c0.04,0.01,0.07,0.02,0.11,0.02c46.86,8.68,87.48,39.19,109.22,81.77
		c-42.1-7.85-83.35-11.73-137.77-12.95c-1.99-0.04-4.16-0.07-6.51-0.07c-31.87,0-94.37,4.11-130.5,11.34
		c19.89-41.65,60.33-71.59,108.52-80.2c0.03-0.25,0.1-0.5,0.15-0.74c-0.07,0.02-0.07,0.02-0.14,0.03
		c-48.66,8.68-89.58,39.06-109.46,81.25l-0.3,0.63l0.68-0.14c38.6-7.84,108.35-12.06,137.53-11.4
		c54.68,1.23,96.05,5.14,138.35,13.07l0.7,0.13l-0.32-0.63c-21.76-43.1-63.04-74.06-110.33-82.82c-0.11-0.02,0.01,0-0.11-0.02"/>
</g>
</svg>
