<svg xmlns="http://www.w3.org/2000/svg" version="1.1" xmlns:xlink="http://www.w3.org/1999/xlink" xmlns:svgjs="http://svgjs.dev/svgjs" viewBox="0 0 800 800"><defs><linearGradient x1="50%" y1="0%" x2="50%" y2="100%" id="uundulate-grad"><stop stop-color="hsl(184, 74%, 44%)" stop-opacity="1" offset="45%"></stop><stop stop-color="hsl(332, 87%, 70%)" stop-opacity="1" offset="100%"></stop></linearGradient></defs><g stroke-width="2" stroke="url(#uundulate-grad)" fill="none"><path d="M2907.149760307143 7.110870297391102C2948.0390096603796 531.4167640467065 1505.248408536816 1538.3979005003434 460.61211624001135 1660.9108408296902C-584.0241760567931 1783.423781159037 -2066.2151933642813 1119.4788776275718 -2107.1044427175184 595.172983878256C-2147.9936920707555 70.86709012894062 -780.2925729523349 -733.2445088376755 264.34371934446926 -855.757449167022C1308.980011641274 -978.2703894963685 2866.2605109539063 -517.1950234519245 2907.149760307143 7.110870297391102C2948.0390096603796 531.4167640467065 1505.248408536816 1538.3979005003434 460.61211624001135 1660.9108408296902 "></path><path d="M2841.17238720747 17.4500354345073C2880.9856036829897 527.9584056641042 1476.1631762732031 1508.4400385268564 459.01731272105144 1627.7289541106938C-558.1285508311005 1747.0178696945313 -2001.3145413673387 1100.5452004665253 -2041.127757842859 590.0368302369288C-2080.9409743183796 79.52846000733211 -749.2319899136016 -703.422307407531 267.91387363854983 -822.7112229913685C1285.0597371907015 -942.0001385752058 2801.3591707319492 -493.0583347950892 2841.17238720747 17.4500354345073C2880.9856036829897 527.9584056641042 1476.1631762732031 1508.4400385268564 459.01731272105144 1627.7289541106938 "></path><path d="M2775.194769967171 27.789231089202076C2813.9319535649747 524.5000777990797 1447.0776998689653 1478.4822070709465 457.42226506146653 1594.5470979092747C-532.2331697460327 1710.6119887476034 -1936.4141335110212 1081.611553823057 -1975.151317108825 584.9007071131794C-2013.8885007066285 88.18986040330174 -718.1716510154934 -673.6000754598085 271.4837837920054 -789.6649662981367C1261.1392185995046 -905.7298571364651 2736.457586369367 -468.921615620676 2775.194769967171 27.789231089202076C2813.9319535649747 524.5000777990797 1447.0776998689653 1478.4822070709465 457.42226506146653 1594.5470979092747 "></path><path d="M2709.216908586246 38.1284267438964C2746.878059306333 521.0417499340556 1417.9919793241029 1448.5243756150376 455.82697326125617 1561.3652417078565C-506.33803280158963 1674.206107800676 -1871.5139697953289 1062.677907179589 -1909.1751205154158 579.7645839894303C-1946.8362712355024 96.85126079927113 -687.1115562580101 -643.777843512086 275.05344980483596 -756.6187096049051C1237.2184558676822 -869.4595756977243 2671.555757866159 -444.78489644626256 2709.216908586246 38.1284267438964C2746.878059306333 521.0417499340556 1417.9919793241029 1448.5243756150376 455.82697326125617 1561.3652417078565 "></path><path d="M2643.239260828369 48.467591881012595C2679.82437867074 517.5833915514529 1388.906472402287 1418.5665136415496 454.2318950840936 1528.1833549888597C-480.4426822341002 1637.8001963361698 -1806.6135924565897 1043.744230018543 -1843.1987102989597 574.6284303481027C-1879.7838281413296 105.5126306776624 -656.0512478774799 -613.9556420819415 278.62332944071386 -723.5724834292516C1213.2979067589072 -833.1893247765615 2606.654142985999 -420.6482077894275 2643.239260828369 48.467591881012595C2679.82437867074 517.5833915514529 1388.906472402287 1418.5665136415496 454.2318950840936 1528.1833549888597 "></path><path d="M2577.26164358807 58.80675701812925C2612.770728552724 514.1250331688505 1359.820995998049 1388.6086516680616 452.63684742450823 1495.001468269863C-454.5473011490326 1601.3942848716638 -1741.7131846002721 1024.810552857496 -1777.2222695649255 569.4922767067751C-1812.7313545295788 114.17400055605367 -624.9909089793714 -584.1334406517972 282.1932395941694 -690.526257253598C1189.3773881677103 -796.9190738553989 2541.752558623417 -396.5115191325923 2577.26164358807 58.80675701812925C2612.770728552724 514.1250331688505 1359.820995998049 1388.6086516680616 452.63684742450823 1495.001468269863 "></path><path d="M2511.284026347771 69.1461052607142C2545.717078434708 510.66685789171675 1330.7355195938112 1358.6509728000428 451.0417997649233 1461.8197646563349C-428.6519200639648 1564.988556512627 -1676.8127767439546 1005.8770588019188 -1711.2458288308912 564.3563061709165C-1745.6788809178277 122.83555353991392 -593.9305700812631 -554.3110561161839 285.763149747625 -657.4798479724757C1165.4568695765129 -760.6486398287675 2476.850974260835 -372.37464737028824 2511.284026347771 69.1461052607142C2545.717078434708 510.66685789171675 1330.7355195938112 1358.6509728000428 451.0417997649233 1461.8197646563349 "></path><path d="M2445.306653248097 79.48527039783039C2478.6636724573173 507.20849950911406 1301.6502873301984 1328.6931108265553 449.4469962459634 1428.637877937338C-402.7562948382722 1528.5826450481209 -1611.9121247470123 986.9433816408725 -1645.269143956232 559.2201525295889C-1678.6261631654518 131.4969234183054 -562.8699870425298 -524.4888546860395 289.33330404170556 -624.4336217968222C1141.536595125941 -724.3783889076049 2411.949634038878 -348.23795871345305 2445.306653248097 79.48527039783039C2478.6636724573173 507.20849950911406 1301.6502873301984 1328.6931108265553 449.4469962459634 1428.637877937338 "></path><path d="M2379.328761349596 89.82443553494704C2411.6097476810974 503.75014112651183 1272.5645362677578 1298.7352488530678 447.85167392817493 1395.4559912183413C-376.8611884114073 1492.1767335836148 -1547.011991548898 968.0097044798263 -1579.292977880401 554.0839988882617C-1611.5739642119038 140.15829329669668 -531.8099228026247 -494.6666532558951 292.902939536958 -591.3873956211687C1117.61580187654 -688.1081379864422 2347.0477750180926 -324.101270056618 2379.328761349596 89.82443553494704C2411.6097476810974 503.75014112651183 1272.5645362677578 1298.7352488530678 447.85167392817493 1395.4559912183413 "></path><path d="M2313.351144109296 100.16360067206324C2344.5560975630815 500.29178274390915 1243.47905986352 1268.7773868795798 446.25662626859 1362.2741044993445C-350.9658073263395 1455.7708221191087 -1482.1115836925806 949.07602731878 -1513.3165371463667 548.9478452469341C-1544.521490600153 148.81966317508795 -500.7495839045164 -464.8444518257507 296.47284969041357 -558.3411694455151C1093.695283285343 -651.8378870652796 2282.1461906555105 -299.9645813997828 2313.351144109296 100.16360067206324C2344.5560975630815 500.29178274390915 1243.47905986352 1268.7773868795798 446.25662626859 1362.2741044993445 "></path><path d="M2247.373526868997 110.50273529160143C2277.5024474450665 496.8333938437288 1214.3935834592821 1238.8194943885142 444.6615786090051 1329.0921872627696C-325.0704262412719 1419.3648801370246 -1417.211175836263 930.1423196401556 -1447.3400964123325 543.8116610880284C-1477.469016988402 157.4810025359011 -469.6892450064079 -435.0222809131844 300.04275984386913 -525.2949737874396C1069.7747646941457 -615.5676666616951 2217.2446062929275 -275.8279232605257 2247.373526868997 110.50273529160143C2277.5024474450665 496.8333938437288 1214.3935834592821 1238.8194943885142 444.6615786090051 1329.0921872627696 "></path><path d="M2181.39587911112 120.84193094629597C2210.4487668094725 493.37506597870424 1185.3080765374661 1208.8616629326048 443.06650043184163 1295.910331061351C-299.1750756737822 1382.9589991900966 -1352.3107984975238 911.2086729966875 -1381.3636861958764 538.6755379642791C-1410.4165738942293 166.14240293187072 -438.62893662587794 -405.20004896546186 303.61263947974635 -492.248717094208C1045.8542155853706 -579.2973852229543 2152.3429914127673 -251.6912040861124 2181.39587911112 120.84193094629597C2210.4487668094725 493.37506597870424 1185.3080765374661 1208.8616629326048 443.06650043184163 1295.910331061351 "></path><path d="M2115.418261870821 131.1810960834124C2143.3951166914567 489.9167075961018 1156.2226001332283 1178.903800959117 441.4714527722572 1262.7284443423541C-273.2796945887146 1346.553087725591 -1287.4103906412065 892.2749958356412 -1315.3872454618422 533.5393843229517C-1343.3641002824781 174.80377281026222 -407.56859772776943 -375.3778475353174 307.1825496332019 -459.2024909185545C1021.9336969941733 -543.0271343017916 2087.441407050185 -227.55451542927722 2115.418261870821 131.1810960834124C2143.3951166914567 489.9167075961018 1156.2226001332283 1178.903800959117 441.4714527722572 1262.7284443423541 "></path><path d="M2049.440644630522 141.52029173810683C2076.341466573441 486.45837973107746 1127.137123728991 1148.9459695032074 439.87640511267205 1229.5465881409352C-247.3843135036468 1310.147206778663 -1222.509982784889 873.3413491921729 -1249.410804727808 528.4032611992022C-1276.3116266707273 183.4651732062316 -376.50825882966114 -345.55561558759484 310.7524597866577 -426.15623422532286C998.0131784029763 -506.75685286305077 2022.5398226876027 -203.4177962548639 2049.440644630522 141.52029173810683C2076.341466573441 486.45837973107746 1127.137123728991 1148.9459695032074 439.87640511267205 1229.5465881409352 "></path><path d="M1983.463027390223 151.8595179103794C2009.287816455425 483.00008238363125 1098.051647324753 1118.988168564876 438.2813574530869 1196.3647624570947C-221.488932418579 1273.7413563493137 -1157.6095749285714 854.4077330662828 -1183.4343639937738 523.2671685930311C-1209.2591530589762 192.12660411977913 -345.44791993155286 -315.7333531222942 314.32236994011305 -393.10994701451307C974.092659811779 -470.4865409067319 1957.6382383250207 -179.28104656287246 1983.463027390223 151.8595179103794C2009.287816455425 483.00008238363125 1098.051647324753 1118.988168564876 438.2813574530869 1196.3647624570947 "></path><path d="M1917.4853796323455 162.19871356507383C1942.2341358198314 479.5417545186069 1068.966140402937 1089.0303371089663 436.6862792759239 1163.1829062556762C-195.5935818510893 1237.3354754023858 -1092.7091975898322 835.4740864228149 -1117.457953777318 518.1310454692816C-1142.2067099648034 200.78800451574864 -314.3876115510225 -285.9111211745717 317.8922495759907 -360.0636903212814C950.1721107030039 -434.2162594679911 1892.73662344486 -155.14432738845915 1917.4853796323455 162.19871356507383C1942.2341358198314 479.5417545186069 1068.966140402937 1089.0303371089663 436.6862792759239 1163.1829062556762 "></path><path d="M1851.507762392047 172.53787870219026C1875.1804857018155 476.08339613600447 1039.8806639986992 1059.0724751354785 435.09123161633875 1130.0010195366792C-169.69820076602173 1200.9295639378797 -1027.808789733515 816.5404092617684 -1051.4815130432835 512.9948918279542C-1075.1542363530525 209.4493743941399 -283.3272726529144 -256.08891974442724 321.4621597294463 -327.01746414562786C926.2515921118065 -397.94600854682847 1827.835039082278 -131.00763873162396 1851.507762392047 172.53787870219026C1875.1804857018155 476.08339613600447 1039.8806639986992 1059.0724751354785 435.09123161633875 1130.0010195366792 "></path><path d="M1785.5301451517475 182.8770743568847C1808.1268355837997 472.62506827098014 1010.7951875944618 1029.114643679569 433.49618395675384 1096.8191633352606C-143.80281968095392 1164.5236829909522 -962.9083818771974 797.6067626183003 -985.5050723092495 507.858768704205C-1008.1017627413015 218.11077479010953 -252.2669337548059 -226.26668779670467 325.0320698829016 -293.9712074523962C902.3310735206096 -361.6757271080877 1762.9334547196959 -106.87091955721075 1785.5301451517475 182.8770743568847C1808.1268355837997 472.62506827098014 1010.7951875944618 1029.114643679569 433.49618395675384 1096.8191633352606 "></path><path d="M1719.552497393871 193.21627001157924C1741.0731549482057 469.1667404059558 981.7096806726458 999.1568122236597 431.9011057795908 1063.637307133842C-117.90746911346423 1128.1178020440245 -898.008004538458 778.6731159748322 -919.5286620927934 502.7226455804557C-941.0493196471286 226.77217518607904 -221.20662537427575 -196.44445584898216 328.6019495187793 -260.9249507591645C878.4105244118346 -325.4054456693469 1698.0318398395352 -82.73420038279733 1719.552497393871 193.21627001157924C1741.0731549482057 469.1667404059558 981.7096806726458 999.1568122236597 431.9011057795908 1063.637307133842 "></path><path d="M1653.5748801535715 203.55543514869555C1674.0195048301898 465.70838202335335 952.624204268408 969.1989502501717 430.3060581200057 1030.455420414845C-92.01208802839665 1091.7118905795185 -833.1075966821406 759.7394388137859 -853.5522213587592 497.5864919391279C-873.9968460353778 235.4335450644703 -190.14628647616746 -166.62225441883777 332.17185967223463 -227.87872458351097C854.4900058206367 -289.13519474818423 1633.1302554769532 -58.59751172596225 1653.5748801535715 203.55543514869555C1674.0195048301898 465.70838202335335 952.624204268408 969.1989502501717 430.3060581200057 1030.455420414845 "></path><path d="M1587.597262913273 213.89460028581198C1606.9658547121749 462.2500236407509 923.5387278641701 939.2410882766842 428.71101046042077 997.2735336958483C-66.11670694332884 1055.3059791150126 -768.2071888258231 740.8057616527394 -787.575780624725 492.4503382978005C-806.9443724236266 244.0949149428618 -159.08594757805918 -136.80005298869332 335.7417698256902 -194.83249840785743C830.5694872294398 -252.8649438270216 1568.228671114371 -34.46082306912706 1587.597262913273 213.89460028581198C1606.9658547121749 462.2500236407509 923.5387278641701 939.2410882766842 428.71101046042077 997.2735336958483 "></path><path d="M1521.6196456729735 224.2337959405063C1539.912204594159 458.79169577572645 894.4532514599325 909.2832568207748 427.11596280083586 964.0916774944299C-40.221325858261025 1018.9000981680849 -703.3067809695058 721.8721150092715 -721.5993398906908 487.31421517405124C-739.8918988118758 252.7563153388312 -128.0256086799509 -106.97782104097075 339.311679979146 -161.78624171462576C806.6489686382426 -216.59466238828077 1503.3270867517886 -10.324103894713744 1521.6196456729735 224.2337959405063C1539.912204594159 458.79169577572645 894.4532514599325 909.2832568207748 427.11596280083586 964.0916774944299 "></path><path d="M1455.6419979150965 234.57299159520085C1472.858523958565 455.3333679107021 865.3677445381165 879.3254253648652 425.5208846236726 930.9098212930112C-14.325975290771453 982.4942172211572 -638.4064036307664 702.9384683658031 -655.6229296742347 482.178092050302C-672.8394557177029 261.4177157348007 -96.96530029942062 -77.15558909324824 342.88155961502343 -128.7399850213941C782.7284195294674 -180.32438094954 1438.4254718716284 13.812615279699685 1455.6419979150965 234.57299159520085C1472.858523958565 455.3333679107021 865.3677445381165 879.3254253648652 425.5208846236726 930.9098212930112 "></path><path d="M1389.6643196396417 244.9121872498954C1405.8048128053924 451.8750400456778 836.2822070987227 849.3675939089558 423.9257759289312 897.7279650915925C11.569344759140108 946.0883362742293 -573.5060568096053 684.004821722335 -589.6465499753567 477.0419689265527C-605.7870431411081 270.0791161307702 -65.90502243646858 -47.33335714552567 346.45140873332275 -95.69372832816248C758.8078399031137 -144.05409951079923 1373.52382647389 37.949334454112886 1389.6643196396417 244.9121872498954C1405.8048128053924 451.8750400456778 836.2822070987227 849.3675939089558 423.9257759289312 897.7279650915925 "></path><path d="M1323.6868244696548 255.2513523870116C1338.7512847576895 448.41668166307534 807.1968527647973 819.409731935468 422.3308503396588 864.5460783725957C37.464847914520305 909.6824248097232 -508.6055268829753 665.0711445612887 -523.66998717101 471.9058152852251C-538.7344474590448 278.7404860091615 -34.84456146804769 -17.51115571538128 350.0214409570908 -62.647502152508935C734.8874433822291 -107.78384858963659 1308.62236418162 62.08602311094808 1323.6868244696548 255.2513523870116C1338.7512847576895 448.41668166307534 807.1968527647973 819.409731935468 422.3308503396588 864.5460783725957 "></path><path d="M1257.7092072293558 265.59054804170614C1271.6976346396737 444.9583537980509 778.1113763605595 789.4519004795584 420.7358026800739 831.3642221711771C63.360228999588 873.2765438627955 -443.7051190266579 646.1374979178206 -457.69354643697585 466.76969216147586C-471.68197384729376 287.4018864051311 -3.784222569939402 12.311076232341293 353.5913511105464 -29.601245459277266C710.9669247910319 -71.51356715089582 1243.7207798190377 86.22274228536139 1257.7092072293558 265.59054804170614C1271.6976346396737 444.9583537980509 778.1113763605595 789.4519004795584 420.7358026800739 831.3642221711771 "></path><path d="M1191.7315594714787 275.9297742139788C1204.6439540040797 441.5000564506047 749.0258694387437 759.4940995412271 419.14072450291064 798.1823964873365C89.25557956707769 836.8706934334459 -378.8047416879186 627.2038817919305 -391.71713622051976 461.6335995553046C-404.62953075312095 296.0633173186786 27.276085810590757 42.13333869764199 357.1612307464238 3.4450417515325285C687.0463756822567 -35.243255194576875 1178.8191649388775 110.35949197735283 1191.7315594714787 275.9297742139788C1204.6439540040797 441.5000564506047 749.0258694387437 759.4940995412271 419.14072450291064 798.1823964873365 "></path><path d="M1125.7538811960235 286.2689393510951C1137.5902428509078 438.04169806800223 719.9403319993496 729.5362375677391 417.54561580816926 765.0005097683397C115.15089961698914 800.4647819689399 -313.9043948667574 608.2702046308842 -325.7407565216418 456.4974459139771C-337.5771181765262 304.7246871970699 58.33636367354279 71.95554012778638 360.73107986472314 36.49126792718607C663.1257960559033 1.026995726585767 1113.917519541139 134.49618063418802 1125.7538811960235 286.2689393510951C1137.5902428509078 438.04169806800223 719.9403319993496 729.5362375677391 417.54561580816926 765.0005097683397 "></path><path d="M1059.7762639557245 296.60810448821144C1070.536592732892 434.5833396853998 690.854855595112 699.5783755942517 415.95056814858447 731.8186230493429C141.04628070205695 764.0588705044343 -249.00398701043997 589.336527469838 -259.7643157876076 451.36129227264973C-270.52464456477526 313.3860570754614 89.39670257165119 101.77774155793077 364.3009900181787 69.53749410283962C639.2052774647063 37.29724664774841 1049.0159351785567 158.6328692910232 1059.7762639557245 296.60810448821144C1070.536592732892 434.5833396853998 690.854855595112 699.5783755942517 415.95056814858447 731.8186230493429 "></path><path d="M993.7986161978474 306.947300142906C1003.4829120972984 431.12501182037545 661.769348673296 669.6205441383421 414.3554899714213 698.6367668479242C166.94163126954652 727.6529895575063 -184.10360967170067 570.4028808263697 -193.78790557115155 446.22516914890025C-203.47220147060244 322.0474574714309 120.45701095218135 131.59997350565334 367.87086965405604 102.58375079607129C615.2847283559308 73.56752808648923 984.1143202983965 182.76958846543647 993.7986161978474 306.947300142906C1003.4829120972984 431.12501182037545 661.769348673296 669.6205441383421 414.3554899714213 698.6367668479242 "></path><path d="M927.8209989575482 317.2864957976004C936.4292619792825 427.6666839553511 632.6838722690582 639.6627126824326 412.7604423118363 665.4549106465056C192.83701235461422 691.2471086105786 -119.20320181538324 551.4692341829016 -127.81146483711734 441.089046025151C-136.41972785885145 330.7088578674004 151.51734985028975 161.4222054533759 371.4407798075117 135.63000748930295C591.3642097647337 109.83780952523 919.2127359358142 206.90630763984984 927.8209989575482 317.2864957976004C936.4292619792825 427.6666839553511 632.6838722690582 639.6627126824326 412.7604423118363 665.4549106465056 "></path><path d="M861.8433817172493 327.62569145229486C869.3756118612666 424.2083560903268 603.5983958648205 609.7048812265231 411.1653946522513 632.2730544450869C218.73239343968203 654.8412276636507 -54.30279395906575 532.5355875394334 -61.83502410308313 435.9529229014016C-69.3672542471005 339.3702582633698 182.57768874839803 191.24443740109842 375.0106899609673 168.67626418253462C567.4436911735364 146.10809096397077 854.3111515732319 231.0430268142631 861.8433817172493 327.62569145229486C869.3756118612666 424.2083560903268 603.5983958648205 609.7048812265231 411.1653946522513 632.2730544450869 "></path><path d="M795.865703441794 337.9648565894113C802.3219007080945 420.7499977077242 574.5128584254265 579.7470192530354 409.57028595751 599.0911677260901C244.6277134895936 618.4353161991448 10.597552862095426 513.6019103783872 4.141355595794835 430.8167692600741C-2.314841670505757 348.0316281417612 213.63796661135007 221.06663883124287 378.5805390792666 201.72249035818817C543.523111547183 182.3783418851334 789.4095061754933 255.1797154710983 795.865703441794 337.9648565894113C802.3219007080945 420.7499977077242 574.5128584254265 579.7470192530354 409.57028595751 599.0911677260901 "></path><path d="M729.8881167190732 348.30408276168384C735.2682811076569 417.291700360278 545.4274125387669 549.7892183147039 407.9752688155031 565.9093420422496C270.5231250922394 582.0294657697953 75.49799123599098 494.66829425249716 70.11782684740712 425.680676653903C64.73766245882331 356.6930590553088 244.69833602703648 250.8889012965435 382.1504797503003 234.7687775689979C519.6026234735641 218.64865384145236 724.5079523304893 279.31646516308973 729.8881167190732 348.30408276168384C735.2682811076569 417.291700360278 545.4274125387669 549.7892183147039 407.9752688155031 565.9093420422496 "></path><path d="M663.9104994787741 358.6432478988002C668.2146309896413 413.83334197767556 516.3419361345291 519.8313563412163 406.3802211559182 532.7274553232528C296.4185061773071 545.6235543052893 140.3983990923084 475.7346170914508 136.09426758144133 420.5445230125755C131.79013607057425 365.3544289337002 275.7586749251449 280.71110272668795 385.72038990375586 267.81500374465145C495.68210488236684 254.918904762615 659.6063679679071 303.4531538199249 663.9104994787741 358.6432478988002C668.2146309896413 413.83334197767556 516.3419361345291 519.8313563412163 406.3802211559182 532.7274553232528 "></path><path d="M597.9328822384751 368.9824435534947C601.1609808716254 410.3750141126512 487.25645973029145 489.8735248853068 404.7851734963331 499.54559912183413C322.3138872623749 509.2176733583615 205.29880694862584 456.80097044798265 202.07070831547554 415.4083998888261C198.84260968232525 374.01582932966966 306.81901382325316 310.53333467441047 389.2903000572114 300.8612604378831C471.7615862911696 291.18918620135577 594.7047836053248 327.5898729943382 597.9328822384751 368.9824435534947C601.1609808716254 410.3750141126512 487.25645973029145 489.8735248853068 404.7851734963331 499.54559912183413 "></path><path d="M531.9552649981761 379.32162394940013C534.1073307536096 406.9166709888378 458.1709833260536 459.91567817060815 403.19012583674817 466.3637276616264C348.2092683474426 472.81177715264465 270.19921480494327 437.8673085457254 268.04714904950976 410.27226150628775C265.8950832940762 382.6772144668501 337.8793527213615 340.355551363344 392.860210210667 333.9075018723257C447.8410676999724 327.45945238130747 529.8031992427426 351.72657690996243 531.9552649981761 379.32162394940013C534.1073307536096 406.9166709888378 458.1709833260536 459.91567817060815 403.19012583674817 466.3637276616264 "></path><path d="M465.97761724029897 389.66081960409457C467.05365011801575 403.4583431238134 429.08547640423774 429.95784671469863 401.595047659585 433.18187146020773C374.10461891493225 436.4058962057169 335.09959214368257 418.93366190225726 334.0235592659658 405.13613838253843C332.94752638824906 391.33861486281955 368.93966110189166 370.1777833110665 396.43008984654443 366.9537585655574C423.92051859119715 363.7297338200483 464.90158436258224 375.86329608437575 465.97761724029897 389.66081960409457C467.05365011801575 403.4583431238134 429.08547640423774 429.95784671469863 401.595047659585 433.18187146020773 "></path></g></svg>